<?xml version="1.0" encoding="UTF-8" standalone="no"?>
<svg
   version="1.1"
   width="800"
   height="800"
   id="svg94"
   sodipodi:docname="rozklad_normalny.svg"
   inkscape:version="1.4.2 (ebf0e940d0, 2025-05-08)"
   xmlns:inkscape="http://www.inkscape.org/namespaces/inkscape"
   xmlns:sodipodi="http://sodipodi.sourceforge.net/DTD/sodipodi-0.dtd"
   xmlns="http://www.w3.org/2000/svg"
   xmlns:svg="http://www.w3.org/2000/svg">
  <sodipodi:namedview
     id="namedview94"
     pagecolor="#ffffff"
     bordercolor="#000000"
     borderopacity="0.25"
     inkscape:showpageshadow="2"
     inkscape:pageopacity="0.0"
     inkscape:pagecheckerboard="0"
     inkscape:deskcolor="#d1d1d1"
     inkscape:zoom="12.552235"
     inkscape:cx="707.48358"
     inkscape:cy="469.15948"
     inkscape:window-width="1536"
     inkscape:window-height="836"
     inkscape:window-x="0"
     inkscape:window-y="0"
     inkscape:window-maximized="1"
     inkscape:current-layer="labels-14c9e781" />
  <defs
     id="defs1" />
  <g
     transform="scale(2,2)"
     id="g94">
    <g
       id="background-14c9e781">
      <rect
         fill="white"
         stroke="none"
         x="0"
         y="0"
         width="400"
         height="400"
         class="dcg-svg-background"
         id="rect1" />
    </g>
    <g
       id="graphpaper-14c9e781">
      <g
         id="grid-14c9e781">
        <g
           id="g49">
          <path
             fill="none"
             stroke="rgb(0,0,0)"
             class="dcg-svg-minor-gridline"
             paint-order="fill stroke markers"
             d=" M 9.5 0 L 9.5 400"
             stroke-opacity="0.2"
             stroke-miterlimit="10"
             stroke-dasharray=""
             id="path1" />
          <path
             fill="none"
             stroke="rgb(0,0,0)"
             class="dcg-svg-minor-gridline"
             paint-order="fill stroke markers"
             d=" M 27.5 0 L 27.5 400"
             stroke-opacity="0.2"
             stroke-miterlimit="10"
             stroke-dasharray=""
             id="path2" />
          <path
             fill="none"
             stroke="rgb(0,0,0)"
             class="dcg-svg-minor-gridline"
             paint-order="fill stroke markers"
             d=" M 45.5 0 L 45.5 400"
             stroke-opacity="0.2"
             stroke-miterlimit="10"
             stroke-dasharray=""
             id="path3" />
          <path
             fill="none"
             stroke="rgb(0,0,0)"
             class="dcg-svg-minor-gridline"
             paint-order="fill stroke markers"
             d=" M 63.5 0 L 63.5 400"
             stroke-opacity="0.2"
             stroke-miterlimit="10"
             stroke-dasharray=""
             id="path4" />
          <path
             fill="none"
             stroke="rgb(0,0,0)"
             class="dcg-svg-minor-gridline"
             paint-order="fill stroke markers"
             d=" M 82.5 0 L 82.5 400"
             stroke-opacity="0.2"
             stroke-miterlimit="10"
             stroke-dasharray=""
             id="path5" />
          <path
             fill="none"
             stroke="rgb(0,0,0)"
             class="dcg-svg-minor-gridline"
             paint-order="fill stroke markers"
             d=" M 100.5 0 L 100.5 400"
             stroke-opacity="0.2"
             stroke-miterlimit="10"
             stroke-dasharray=""
             id="path6" />
          <path
             fill="none"
             stroke="rgb(0,0,0)"
             class="dcg-svg-minor-gridline"
             paint-order="fill stroke markers"
             d=" M 118.5 0 L 118.5 400"
             stroke-opacity="0.2"
             stroke-miterlimit="10"
             stroke-dasharray=""
             id="path7" />
          <path
             fill="none"
             stroke="rgb(0,0,0)"
             class="dcg-svg-minor-gridline"
             paint-order="fill stroke markers"
             d=" M 136.5 0 L 136.5 400"
             stroke-opacity="0.2"
             stroke-miterlimit="10"
             stroke-dasharray=""
             id="path8" />
          <path
             fill="none"
             stroke="rgb(0,0,0)"
             class="dcg-svg-minor-gridline"
             paint-order="fill stroke markers"
             d=" M 155.5 0 L 155.5 400"
             stroke-opacity="0.2"
             stroke-miterlimit="10"
             stroke-dasharray=""
             id="path9" />
          <path
             fill="none"
             stroke="rgb(0,0,0)"
             class="dcg-svg-minor-gridline"
             paint-order="fill stroke markers"
             d=" M 173.5 0 L 173.5 400"
             stroke-opacity="0.2"
             stroke-miterlimit="10"
             stroke-dasharray=""
             id="path10" />
          <path
             fill="none"
             stroke="rgb(0,0,0)"
             class="dcg-svg-minor-gridline"
             paint-order="fill stroke markers"
             d=" M 191.5 0 L 191.5 400"
             stroke-opacity="0.2"
             stroke-miterlimit="10"
             stroke-dasharray=""
             id="path11" />
          <path
             fill="none"
             stroke="rgb(0,0,0)"
             class="dcg-svg-minor-gridline"
             paint-order="fill stroke markers"
             d=" M 209.5 0 L 209.5 400"
             stroke-opacity="0.2"
             stroke-miterlimit="10"
             stroke-dasharray=""
             id="path12" />
          <path
             fill="none"
             stroke="rgb(0,0,0)"
             class="dcg-svg-minor-gridline"
             paint-order="fill stroke markers"
             d=" M 246.5 0 L 246.5 400"
             stroke-opacity="0.2"
             stroke-miterlimit="10"
             stroke-dasharray=""
             id="path13" />
          <path
             fill="none"
             stroke="rgb(0,0,0)"
             class="dcg-svg-minor-gridline"
             paint-order="fill stroke markers"
             d=" M 264.5 0 L 264.5 400"
             stroke-opacity="0.2"
             stroke-miterlimit="10"
             stroke-dasharray=""
             id="path14" />
          <path
             fill="none"
             stroke="rgb(0,0,0)"
             class="dcg-svg-minor-gridline"
             paint-order="fill stroke markers"
             d=" M 282.5 0 L 282.5 400"
             stroke-opacity="0.2"
             stroke-miterlimit="10"
             stroke-dasharray=""
             id="path15" />
          <path
             fill="none"
             stroke="rgb(0,0,0)"
             class="dcg-svg-minor-gridline"
             paint-order="fill stroke markers"
             d=" M 300.5 0 L 300.5 400"
             stroke-opacity="0.2"
             stroke-miterlimit="10"
             stroke-dasharray=""
             id="path16" />
          <path
             fill="none"
             stroke="rgb(0,0,0)"
             class="dcg-svg-minor-gridline"
             paint-order="fill stroke markers"
             d=" M 318.5 0 L 318.5 400"
             stroke-opacity="0.2"
             stroke-miterlimit="10"
             stroke-dasharray=""
             id="path17" />
          <path
             fill="none"
             stroke="rgb(0,0,0)"
             class="dcg-svg-minor-gridline"
             paint-order="fill stroke markers"
             d=" M 337.5 0 L 337.5 400"
             stroke-opacity="0.2"
             stroke-miterlimit="10"
             stroke-dasharray=""
             id="path18" />
          <path
             fill="none"
             stroke="rgb(0,0,0)"
             class="dcg-svg-minor-gridline"
             paint-order="fill stroke markers"
             d=" M 355.5 0 L 355.5 400"
             stroke-opacity="0.2"
             stroke-miterlimit="10"
             stroke-dasharray=""
             id="path19" />
          <path
             fill="none"
             stroke="rgb(0,0,0)"
             class="dcg-svg-minor-gridline"
             paint-order="fill stroke markers"
             d=" M 373.5 0 L 373.5 400"
             stroke-opacity="0.2"
             stroke-miterlimit="10"
             stroke-dasharray=""
             id="path20" />
          <path
             fill="none"
             stroke="rgb(0,0,0)"
             class="dcg-svg-minor-gridline"
             paint-order="fill stroke markers"
             d=" M 391.5 0 L 391.5 400"
             stroke-opacity="0.2"
             stroke-miterlimit="10"
             stroke-dasharray=""
             id="path21" />
          <path
             fill="none"
             stroke="rgb(0,0,0)"
             class="dcg-svg-minor-gridline"
             paint-order="fill stroke markers"
             d=" M 0 393.5 L 400 393.5"
             stroke-opacity="0.2"
             stroke-miterlimit="10"
             stroke-dasharray=""
             id="path22" />
          <path
             fill="none"
             stroke="rgb(0,0,0)"
             class="dcg-svg-minor-gridline"
             paint-order="fill stroke markers"
             d=" M 0 375.5 L 400 375.5"
             stroke-opacity="0.2"
             stroke-miterlimit="10"
             stroke-dasharray=""
             id="path23" />
          <path
             fill="none"
             stroke="rgb(0,0,0)"
             class="dcg-svg-minor-gridline"
             paint-order="fill stroke markers"
             d=" M 0 357.5 L 400 357.5"
             stroke-opacity="0.2"
             stroke-miterlimit="10"
             stroke-dasharray=""
             id="path24" />
          <path
             fill="none"
             stroke="rgb(0,0,0)"
             class="dcg-svg-minor-gridline"
             paint-order="fill stroke markers"
             d=" M 0 338.5 L 400 338.5"
             stroke-opacity="0.2"
             stroke-miterlimit="10"
             stroke-dasharray=""
             id="path25" />
          <path
             fill="none"
             stroke="rgb(0,0,0)"
             class="dcg-svg-minor-gridline"
             paint-order="fill stroke markers"
             d=" M 0 320.5 L 400 320.5"
             stroke-opacity="0.2"
             stroke-miterlimit="10"
             stroke-dasharray=""
             id="path26" />
          <path
             fill="none"
             stroke="rgb(0,0,0)"
             class="dcg-svg-minor-gridline"
             paint-order="fill stroke markers"
             d=" M 0 302.5 L 400 302.5"
             stroke-opacity="0.2"
             stroke-miterlimit="10"
             stroke-dasharray=""
             id="path27" />
          <path
             fill="none"
             stroke="rgb(0,0,0)"
             class="dcg-svg-minor-gridline"
             paint-order="fill stroke markers"
             d=" M 0 284.5 L 400 284.5"
             stroke-opacity="0.2"
             stroke-miterlimit="10"
             stroke-dasharray=""
             id="path28" />
          <path
             fill="none"
             stroke="rgb(0,0,0)"
             class="dcg-svg-minor-gridline"
             paint-order="fill stroke markers"
             d=" M 0 266.5 L 400 266.5"
             stroke-opacity="0.2"
             stroke-miterlimit="10"
             stroke-dasharray=""
             id="path29" />
          <path
             fill="none"
             stroke="rgb(0,0,0)"
             class="dcg-svg-minor-gridline"
             paint-order="fill stroke markers"
             d=" M 0 247.5 L 400 247.5"
             stroke-opacity="0.2"
             stroke-miterlimit="10"
             stroke-dasharray=""
             id="path30" />
          <path
             fill="none"
             stroke="rgb(0,0,0)"
             class="dcg-svg-minor-gridline"
             paint-order="fill stroke markers"
             d=" M 0 229.5 L 400 229.5"
             stroke-opacity="0.2"
             stroke-miterlimit="10"
             stroke-dasharray=""
             id="path31" />
          <path
             fill="none"
             stroke="rgb(0,0,0)"
             class="dcg-svg-minor-gridline"
             paint-order="fill stroke markers"
             d=" M 0 193.5 L 400 193.5"
             stroke-opacity="0.2"
             stroke-miterlimit="10"
             stroke-dasharray=""
             id="path32" />
          <path
             fill="none"
             stroke="rgb(0,0,0)"
             class="dcg-svg-minor-gridline"
             paint-order="fill stroke markers"
             d=" M 0 175.5 L 400 175.5"
             stroke-opacity="0.2"
             stroke-miterlimit="10"
             stroke-dasharray=""
             id="path33" />
          <path
             fill="none"
             stroke="rgb(0,0,0)"
             class="dcg-svg-minor-gridline"
             paint-order="fill stroke markers"
             d=" M 0 156.5 L 400 156.5"
             stroke-opacity="0.2"
             stroke-miterlimit="10"
             stroke-dasharray=""
             id="path34" />
          <path
             fill="none"
             stroke="rgb(0,0,0)"
             class="dcg-svg-minor-gridline"
             paint-order="fill stroke markers"
             d=" M 0 138.5 L 400 138.5"
             stroke-opacity="0.2"
             stroke-miterlimit="10"
             stroke-dasharray=""
             id="path35" />
          <path
             fill="none"
             stroke="rgb(0,0,0)"
             class="dcg-svg-minor-gridline"
             paint-order="fill stroke markers"
             d=" M 0 120.5 L 400 120.5"
             stroke-opacity="0.2"
             stroke-miterlimit="10"
             stroke-dasharray=""
             id="path36" />
          <path
             fill="none"
             stroke="rgb(0,0,0)"
             class="dcg-svg-minor-gridline"
             paint-order="fill stroke markers"
             d=" M 0 102.5 L 400 102.5"
             stroke-opacity="0.2"
             stroke-miterlimit="10"
             stroke-dasharray=""
             id="path37" />
          <path
             fill="none"
             stroke="rgb(0,0,0)"
             class="dcg-svg-minor-gridline"
             paint-order="fill stroke markers"
             d=" M 0 84.5 L 400 84.5"
             stroke-opacity="0.2"
             stroke-miterlimit="10"
             stroke-dasharray=""
             id="path38" />
          <path
             fill="none"
             stroke="rgb(0,0,0)"
             class="dcg-svg-minor-gridline"
             paint-order="fill stroke markers"
             d=" M 0 65.5 L 400 65.5"
             stroke-opacity="0.2"
             stroke-miterlimit="10"
             stroke-dasharray=""
             id="path39" />
          <path
             fill="none"
             stroke="rgb(0,0,0)"
             class="dcg-svg-minor-gridline"
             paint-order="fill stroke markers"
             d=" M 0 47.5 L 400 47.5"
             stroke-opacity="0.2"
             stroke-miterlimit="10"
             stroke-dasharray=""
             id="path40" />
          <path
             fill="none"
             stroke="rgb(0,0,0)"
             class="dcg-svg-minor-gridline"
             paint-order="fill stroke markers"
             d=" M 0 29.5 L 400 29.5"
             stroke-opacity="0.2"
             stroke-miterlimit="10"
             stroke-dasharray=""
             id="path41" />
          <path
             fill="none"
             stroke="rgb(0,0,0)"
             class="dcg-svg-minor-gridline"
             paint-order="fill stroke markers"
             d=" M 0 11.5 L 400 11.5"
             stroke-opacity="0.2"
             stroke-miterlimit="10"
             stroke-dasharray=""
             id="path42" />
          <path
             fill="none"
             stroke="rgb(0,0,0)"
             class="dcg-svg-major-gridline"
             paint-order="fill stroke markers"
             d=" M 45.5 0 L 45.5 400"
             stroke-opacity="0.2500000000000001"
             stroke-miterlimit="10"
             stroke-dasharray=""
             id="path43" />
          <path
             fill="none"
             stroke="rgb(0,0,0)"
             class="dcg-svg-major-gridline"
             paint-order="fill stroke markers"
             d=" M 136.5 0 L 136.5 400"
             stroke-opacity="0.2500000000000001"
             stroke-miterlimit="10"
             stroke-dasharray=""
             id="path44" />
          <path
             fill="none"
             stroke="rgb(0,0,0)"
             class="dcg-svg-major-gridline"
             paint-order="fill stroke markers"
             d=" M 318.5 0 L 318.5 400"
             stroke-opacity="0.2500000000000001"
             stroke-miterlimit="10"
             stroke-dasharray=""
             id="path45" />
          <path
             fill="none"
             stroke="rgb(0,0,0)"
             class="dcg-svg-major-gridline"
             paint-order="fill stroke markers"
             d=" M 0 393.5 L 400 393.5"
             stroke-opacity="0.2500000000000001"
             stroke-miterlimit="10"
             stroke-dasharray=""
             id="path46" />
          <path
             fill="none"
             stroke="rgb(0,0,0)"
             class="dcg-svg-major-gridline"
             paint-order="fill stroke markers"
             d=" M 0 302.5 L 400 302.5"
             stroke-opacity="0.2500000000000001"
             stroke-miterlimit="10"
             stroke-dasharray=""
             id="path47" />
          <path
             fill="none"
             stroke="rgb(0,0,0)"
             class="dcg-svg-major-gridline"
             paint-order="fill stroke markers"
             d=" M 0 120.5 L 400 120.5"
             stroke-opacity="0.2500000000000001"
             stroke-miterlimit="10"
             stroke-dasharray=""
             id="path48" />
          <path
             fill="none"
             stroke="rgb(0,0,0)"
             class="dcg-svg-major-gridline"
             paint-order="fill stroke markers"
             d=" M 0 29.5 L 400 29.5"
             stroke-opacity="0.2500000000000001"
             stroke-miterlimit="10"
             stroke-dasharray=""
             id="path49" />
        </g>
      </g>
      <g
         id="axis-14c9e781">
        <g
           id="yaxis-14c9e781">
          <title
             id="title49">Y axis</title>
          <g
             id="g50">
            <path
               fill="none"
               stroke="rgb(0,0,0)"
               class="dcg-svg-axis-line"
               paint-order="fill stroke markers"
               d=" M 228 0 L 228 400"
               stroke-opacity="0.9"
               stroke-miterlimit="10"
               stroke-width="1.5"
               stroke-dasharray=""
               id="path50" />
          </g>
        </g>
        <g
           id="xaxis-14c9e781">
          <title
             id="title50">X axis</title>
          <g
             id="g51">
            <path
               fill="none"
               stroke="rgb(0,0,0)"
               class="dcg-svg-axis-line"
               paint-order="fill stroke markers"
               d=" M 0 212 L 400 212"
               stroke-opacity="0.9"
               stroke-miterlimit="10"
               stroke-width="1.5"
               stroke-dasharray=""
               id="path51" />
          </g>
        </g>
        <g
           id="g67">
          <g
             class="dcg-svg-axis-value"
             id="g52">
            <text
               fill="none"
               stroke="#ffffff"
               font-family="Arial"
               font-size="14px"
               font-style="normal"
               font-weight="normal"
               text-decoration="normal"
               x="218.97994308921827"
               y="227.3113790741725"
               text-anchor="middle"
               stroke-miterlimit="2"
               stroke-width="3"
               stroke-dasharray=""
               id="text51">0</text>
            <text
               fill="#000000"
               stroke="none"
               font-family="Arial"
               font-size="14px"
               font-style="normal"
               font-weight="normal"
               text-decoration="normal"
               x="218.97994308921827"
               y="227.3113790741725"
               text-anchor="middle"
               id="text52">0</text>
          </g>
          <g
             class="dcg-svg-axis-value"
             id="g54">
            <text
               fill="none"
               stroke="#ffffff"
               font-family="Arial"
               font-size="14px"
               font-style="normal"
               font-weight="normal"
               text-decoration="normal"
               x="43.45771560121031"
               y="227.3113790741725"
               text-anchor="middle"
               stroke-miterlimit="2"
               stroke-width="3"
               stroke-dasharray=""
               id="text53">-2</text>
            <text
               fill="#000000"
               stroke="none"
               font-family="Arial"
               font-size="14px"
               font-style="normal"
               font-weight="normal"
               text-decoration="normal"
               x="43.45771560121031"
               y="227.3113790741725"
               text-anchor="middle"
               id="text54">-2</text>
          </g>
          <g
             class="dcg-svg-axis-value"
             id="g56">
            <text
               fill="none"
               stroke="#ffffff"
               font-family="Arial"
               font-size="14px"
               font-style="normal"
               font-weight="normal"
               text-decoration="normal"
               x="134.50216288517706"
               y="227.3113790741725"
               text-anchor="middle"
               stroke-miterlimit="2"
               stroke-width="3"
               stroke-dasharray=""
               id="text55">-1</text>
            <text
               fill="#000000"
               stroke="none"
               font-family="Arial"
               font-size="14px"
               font-style="normal"
               font-weight="normal"
               text-decoration="normal"
               x="134.50216288517706"
               y="227.3113790741725"
               text-anchor="middle"
               id="text56">-1</text>
          </g>
          <g
             class="dcg-svg-axis-value"
             id="g58">
            <text
               fill="none"
               stroke="#ffffff"
               font-family="Arial"
               font-size="14px"
               font-style="normal"
               font-weight="normal"
               text-decoration="normal"
               x="318.9243904685525"
               y="227.3113790741725"
               text-anchor="middle"
               stroke-miterlimit="2"
               stroke-width="3"
               stroke-dasharray=""
               id="text57">1</text>
            <text
               fill="#000000"
               stroke="none"
               font-family="Arial"
               font-size="14px"
               font-style="normal"
               font-weight="normal"
               text-decoration="normal"
               x="318.9243904685525"
               y="227.3113790741725"
               text-anchor="middle"
               id="text58">1</text>
          </g>
          <g
             class="dcg-svg-axis-value dcg-svg-offcenter-axis-value"
             id="g60">
            <text
               fill="none"
               stroke="#ffffff"
               font-family="Arial"
               font-size="14px"
               font-style="normal"
               font-weight="normal"
               text-decoration="normal"
               x="216.64661007377637"
               y="393.808"
               text-anchor="middle"
               stroke-miterlimit="2"
               stroke-width="3"
               stroke-dasharray=""
               id="text59">-2</text>
            <text
               fill="#000000"
               stroke="none"
               font-family="Arial"
               font-size="14px"
               font-style="normal"
               font-weight="normal"
               text-decoration="normal"
               x="216.64661007377637"
               y="393.808"
               text-anchor="middle"
               id="text60">-2</text>
          </g>
          <g
             class="dcg-svg-axis-value"
             id="g62">
            <text
               fill="none"
               stroke="#ffffff"
               font-family="Arial"
               font-size="14px"
               font-style="normal"
               font-weight="normal"
               text-decoration="normal"
               x="216.64661007377637"
               y="306.35582635813927"
               text-anchor="middle"
               stroke-miterlimit="2"
               stroke-width="3"
               stroke-dasharray=""
               id="text61">-1</text>
            <text
               fill="#000000"
               stroke="none"
               font-family="Arial"
               font-size="14px"
               font-style="normal"
               font-weight="normal"
               text-decoration="normal"
               x="216.64661007377637"
               y="306.35582635813927"
               text-anchor="middle"
               id="text62">-1</text>
          </g>
          <g
             class="dcg-svg-axis-value"
             id="g64">
            <text
               fill="none"
               stroke="#ffffff"
               font-family="Arial"
               font-size="14px"
               font-style="normal"
               font-weight="normal"
               text-decoration="normal"
               x="218.97994308921827"
               y="124.26693179020572"
               text-anchor="middle"
               stroke-miterlimit="2"
               stroke-width="3"
               stroke-dasharray=""
               id="text63">1</text>
            <text
               fill="#000000"
               stroke="none"
               font-family="Arial"
               font-size="14px"
               font-style="normal"
               font-weight="normal"
               text-decoration="normal"
               x="218.97994308921827"
               y="124.26693179020572"
               text-anchor="middle"
               id="text64">1</text>
          </g>
          <g
             class="dcg-svg-axis-value"
             id="g66">
            <text
               fill="none"
               stroke="#ffffff"
               font-family="Arial"
               font-size="14px"
               font-style="normal"
               font-weight="normal"
               text-decoration="normal"
               x="218.97994308921827"
               y="33.22248450623892"
               text-anchor="middle"
               stroke-miterlimit="2"
               stroke-width="3"
               stroke-dasharray=""
               id="text65">2</text>
            <text
               fill="#000000"
               stroke="none"
               font-family="Arial"
               font-size="14px"
               font-style="normal"
               font-weight="normal"
               text-decoration="normal"
               x="218.97994308921827"
               y="33.22248450623892"
               text-anchor="middle"
               id="text66">2</text>
          </g>
        </g>
      </g>
    </g>
    <g
       id="expressions-14c9e781">
      <g
         id="sketch-14c9e781">
        <title
           id="title67">Expression 3</title>
        <path
           fill="#2d70b3"
           stroke="none"
           paint-order="stroke fill markers"
           d=""
           fill-opacity="0.4"
           id="path67" />
        <g
           id="g68">
          <path
             fill="none"
             stroke="#2d70b3"
             class="dcg-svg-curve"
             paint-order="fill stroke markers"
             d=" M 227.8799431845857 400 L 227.8799431845857 389 M 227.8799431845857 382 L 227.8799431845857 371 M 227.8799431845857 364 L 227.8799431845857 353 M 227.8799431845857 346 L 227.8799431845857 335 M 227.8799431845857 328 L 227.8799431845857 317 M 227.8799431845857 310 L 227.8799431845857 299 M 227.8799431845857 292 L 227.8799431845857 281 M 227.8799431845857 274 L 227.8799431845857 263 M 227.8799431845857 256 L 227.8799431845857 245 M 227.8799431845857 238 L 227.8799431845857 227 M 227.8799431845857 220 L 227.8799431845857 209 M 227.8799431845857 202 L 227.8799431845857 191 M 227.8799431845857 184 L 227.8799431845857 173 M 227.8799431845857 166 L 227.8799431845857 155 M 227.8799431845857 148 L 227.8799431845857 137 M 227.8799431845857 130 L 227.8799431845857 119 M 227.8799431845857 112 L 227.8799431845857 101 M 227.8799431845857 94 L 227.8799431845857 83 M 227.8799431845857 76 L 227.8799431845857 65 M 227.8799431845857 58 L 227.8799431845857 47 M 227.8799431845857 40 L 227.8799431845857 29 M 227.8799431845857 22 L 227.8799431845857 11 M 227.8799431845857 4 L 227.8799431845857 0"
             stroke-linecap="round"
             stroke-linejoin="round"
             stroke-miterlimit="10"
             stroke-width="2.5"
             stroke-opacity="0.5"
             stroke-dasharray=""
             id="path68" />
        </g>
      </g>
      <g
         id="g69">
        <title
           id="title68">mu</title>
      </g>
      <g
         id="g70">
        <title
           id="title69">mu plus sigma</title>
      </g>
      <g
         id="g72">
        <title
           id="title70">Expression 7</title>
        <path
           fill="#388c46"
           stroke="none"
           paint-order="stroke fill markers"
           d=""
           fill-opacity="0.4"
           id="path70" />
        <g
           id="g71">
          <path
             fill="none"
             stroke="#388c46"
             class="dcg-svg-curve"
             paint-order="fill stroke markers"
             d=" M 318.9243904685525 400 L 318.9243904685525 389 M 318.9243904685525 382 L 318.9243904685525 371 M 318.9243904685525 364 L 318.9243904685525 353 M 318.9243904685525 346 L 318.9243904685525 335 M 318.9243904685525 328 L 318.9243904685525 317 M 318.9243904685525 310 L 318.9243904685525 299 M 318.9243904685525 292 L 318.9243904685525 281 M 318.9243904685525 274 L 318.9243904685525 263 M 318.9243904685525 256 L 318.9243904685525 245 M 318.9243904685525 238 L 318.9243904685525 227 M 318.9243904685525 220 L 318.9243904685525 209 M 318.9243904685525 202 L 318.9243904685525 191 M 318.9243904685525 184 L 318.9243904685525 173 M 318.9243904685525 166 L 318.9243904685525 155 M 318.9243904685525 148 L 318.9243904685525 137 M 318.9243904685525 130 L 318.9243904685525 119 M 318.9243904685525 112 L 318.9243904685525 101 M 318.9243904685525 94 L 318.9243904685525 83 M 318.9243904685525 76 L 318.9243904685525 65 M 318.9243904685525 58 L 318.9243904685525 47 M 318.9243904685525 40 L 318.9243904685525 29 M 318.9243904685525 22 L 318.9243904685525 11 M 318.9243904685525 4 L 318.9243904685525 0"
             stroke-linecap="round"
             stroke-linejoin="round"
             stroke-miterlimit="10"
             stroke-width="2.5"
             stroke-opacity="0.5"
             stroke-dasharray=""
             id="path71" />
        </g>
      </g>
      <g
         id="g73">
        <title
           id="title72">mu minus sigma</title>
      </g>
      <g
         id="g75">
        <title
           id="title73">Expression 9</title>
        <path
           fill="#388c46"
           stroke="none"
           paint-order="stroke fill markers"
           d=""
           fill-opacity="0.4"
           id="path73" />
        <g
           id="g74">
          <path
             fill="none"
             stroke="#388c46"
             class="dcg-svg-curve"
             paint-order="fill stroke markers"
             d=" M 136.83549590061895 400 L 136.83549590061895 389 M 136.83549590061895 382 L 136.83549590061895 371 M 136.83549590061895 364 L 136.83549590061895 353 M 136.83549590061895 346 L 136.83549590061895 335 M 136.83549590061895 328 L 136.83549590061895 317 M 136.83549590061895 310 L 136.83549590061895 299 M 136.83549590061895 292 L 136.83549590061895 281 M 136.83549590061895 274 L 136.83549590061895 263 M 136.83549590061895 256 L 136.83549590061895 245 M 136.83549590061895 238 L 136.83549590061895 227 M 136.83549590061895 220 L 136.83549590061895 209 M 136.83549590061895 202 L 136.83549590061895 191 M 136.83549590061895 184 L 136.83549590061895 173 M 136.83549590061895 166 L 136.83549590061895 155 M 136.83549590061895 148 L 136.83549590061895 137 M 136.83549590061895 130 L 136.83549590061895 119 M 136.83549590061895 112 L 136.83549590061895 101 M 136.83549590061895 94 L 136.83549590061895 83 M 136.83549590061895 76 L 136.83549590061895 65 M 136.83549590061895 58 L 136.83549590061895 47 M 136.83549590061895 40 L 136.83549590061895 29 M 136.83549590061895 22 L 136.83549590061895 11 M 136.83549590061895 4 L 136.83549590061895 0"
             stroke-linecap="round"
             stroke-linejoin="round"
             stroke-miterlimit="10"
             stroke-width="2.5"
             stroke-opacity="0.5"
             stroke-dasharray=""
             id="path74" />
        </g>
      </g>
      <g
         id="g77">
        <title
           id="title75">Expression 10</title>
        <path
           fill="#c74440"
           stroke="none"
           paint-order="stroke fill markers"
           d=""
           fill-opacity="0.4"
           id="path75" />
        <g
           id="g76">
          <path
             fill="none"
             stroke="#c74440"
             class="dcg-svg-curve"
             paint-order="fill stroke markers"
             d=" M 0 209.91926828982852 L 0 209.91926828982852 L 15.4296875 209.11682993292254 L 29.296875 208.13757677324392 L 42.08984374999997 206.9753918743873 L 54.19921875 205.61577263315814 L 65.91796875 204.03925621329736 L 77.5390625 202.21254598502426 L 89.35546875 200.08844679993703 L 101.75781250000001 197.58920903253824 L 115.52734374999999 194.54129612969567 L 133.984375 190.16295227154254 L 160.7421875 183.82872146793417 L 172.94921875 181.2260286389113 L 183.203125 179.30200929124058 L 192.3828125 177.84025528958398 L 200.9765625 176.7335516207827 L 209.1796875 175.94003937868962 L 217.08984375 175.43608669350292 L 224.8046875 175.20261371531402 L 232.51953125 175.22903031768467 L 240.234375 175.51476950899126 L 248.14453125 176.07055708586293 L 256.25 176.90316295942603 L 264.74609375 178.04081723327735 L 273.828125 179.52503089812524 L 283.7890625 181.42343963520597 L 295.3125 183.89486756305973 L 310.44921875 187.42859812474302 L 347.4609375 196.17274439260134 L 360.9375 199.01896725814112 L 373.14453125 201.3323482390993 L 384.86328125 203.28895859689456 L 396.484375 204.96520228208254 L 400 205.42095585959572"
             stroke-linecap="round"
             stroke-linejoin="round"
             stroke-miterlimit="10"
             stroke-width="2.5"
             stroke-dasharray=""
             id="path76" />
        </g>
      </g>
    </g>
    <g
       id="labels-14c9e781">
      <g
         transform="rotate(0,0,0) translate(204,179)"
         id="g79">
        <g
           class="dcg-svg-label"
           id="g78">
          <path
             d="m 8.2953512,14.493301 q -1.5651903,1.677607 -2.72395,1.677607 -0.7436816,0 -1.3835937,-0.570732 v 0.458316 q 0,0.795566 0.2421289,1.59978 0.2767187,0.890688 0.2767187,1.176054 0,0.397784 -0.2507763,0.657207 -0.2507764,0.259424 -0.6226172,0.259424 -0.3804882,0 -0.6053222,-0.302661 -0.224834,-0.302661 -0.224834,-0.726387 0,-0.311308 0.224834,-1.12417 0.2594238,-0.899335 0.2594238,-1.746787 V 8.0077058 h 1.426831 V 13.13565 q 0,0.778271 0.1297119,1.141465 0.1383594,0.363193 0.4756103,0.596674 0.3458984,0.224834 0.7782715,0.224834 0.7696239,0 1.9975633,-1.05499 V 8.0077058 h 1.4354785 v 6.0099852 q 0,0.760976 0.1556543,1.05499 0.155654,0.285366 0.527495,0.285366 0.588027,0 0.760977,-1.150112 h 0.311308 q -0.164302,1.962973 -1.6603123,1.962973 -0.6485595,0 -1.0809325,-0.432373 -0.4237256,-0.44102 -0.449668,-1.245234 z"
             id="text77"
             style="font-style:italic;font-size:17.71px;font-family:'Times New Roman', Symbola, serif;fill:none;stroke:#ffffff;stroke-width:3;stroke-linecap:round;stroke-linejoin:round;stroke-miterlimit:2"
             aria-label="μ" />
          <path
             d="m 8.2953512,14.493301 q -1.5651903,1.677607 -2.72395,1.677607 -0.7436816,0 -1.3835937,-0.570732 v 0.458316 q 0,0.795566 0.2421289,1.59978 0.2767187,0.890688 0.2767187,1.176054 0,0.397784 -0.2507763,0.657207 -0.2507764,0.259424 -0.6226172,0.259424 -0.3804882,0 -0.6053222,-0.302661 -0.224834,-0.302661 -0.224834,-0.726387 0,-0.311308 0.224834,-1.12417 0.2594238,-0.899335 0.2594238,-1.746787 V 8.0077058 h 1.426831 V 13.13565 q 0,0.778271 0.1297119,1.141465 0.1383594,0.363193 0.4756103,0.596674 0.3458984,0.224834 0.7782715,0.224834 0.7696239,0 1.9975633,-1.05499 V 8.0077058 h 1.4354785 v 6.0099852 q 0,0.760976 0.1556543,1.05499 0.155654,0.285366 0.527495,0.285366 0.588027,0 0.760977,-1.150112 h 0.311308 q -0.164302,1.962973 -1.6603123,1.962973 -0.6485595,0 -1.0809325,-0.432373 -0.4237256,-0.44102 -0.449668,-1.245234 z"
             id="text78"
             style="font-style:italic;font-size:17.71px;font-family:'Times New Roman', Symbola, serif;fill:#2d70b3"
             aria-label="μ" />
        </g>
      </g>
      <g
         transform="rotate(0,0,0) translate(330,223)"
         id="g85">
        <g
           class="dcg-svg-label"
           id="g84">
          <path
             d="m 8.2953512,14.493301 q -1.5651903,1.677607 -2.72395,1.677607 -0.7436816,0 -1.3835937,-0.570732 v 0.458316 q 0,0.795566 0.2421289,1.59978 0.2767187,0.890688 0.2767187,1.176054 0,0.397784 -0.2507763,0.657207 -0.2507764,0.259424 -0.6226172,0.259424 -0.3804882,0 -0.6053222,-0.302661 -0.224834,-0.302661 -0.224834,-0.726387 0,-0.311308 0.224834,-1.12417 0.2594238,-0.899335 0.2594238,-1.746787 V 8.0077058 h 1.426831 V 13.13565 q 0,0.778271 0.1297119,1.141465 0.1383594,0.363193 0.4756103,0.596674 0.3458984,0.224834 0.7782715,0.224834 0.7696239,0 1.9975633,-1.05499 V 8.0077058 h 1.4354785 v 6.0099852 q 0,0.760976 0.1556543,1.05499 0.155654,0.285366 0.527495,0.285366 0.588027,0 0.760977,-1.150112 h 0.311308 q -0.164302,1.962973 -1.6603123,1.962973 -0.6485595,0 -1.0809325,-0.432373 -0.4237256,-0.44102 -0.449668,-1.245234 z"
             id="text79"
             style="font-style:italic;font-size:17.71px;font-family:'Times New Roman', Symbola, serif;fill:none;stroke:#ffffff;stroke-width:3;stroke-linecap:round;stroke-linejoin:round;stroke-miterlimit:2"
             aria-label="μ" />
          <path
             d="M 19.076388,14.709488 V 10.394405 H 14.769953 V 9.6853131 h 4.306435 V 5.3875253 h 0.691797 v 4.2977878 h 4.32373 v 0.7090919 h -4.32373 v 4.315083 z"
             id="text80"
             style="font-size:17.71px;font-family:Symbola, 'Times New Roman', serif;fill:none;stroke:#ffffff;stroke-width:3;stroke-linecap:round;stroke-linejoin:round;stroke-miterlimit:2"
             aria-label="+" />
          <path
             d="M 40.958913,8.0077058 V 9.270235 h -3.372509 q 1.106874,0.6312646 1.807319,1.59978 0.700444,0.959868 0.700444,2.040801 0,1.409536 -1.115522,2.334814 -1.106875,0.925278 -2.516411,0.925278 -1.66896,0 -2.879605,-1.305766 -1.210644,-1.314414 -1.210644,-3.052554 0,-1.227939 0.631264,-2.1705122 0.639913,-0.9425732 1.478716,-1.2884716 0.847451,-0.3458984 2.28293,-0.3458984 z M 37.007024,9.270235 h -0.302661 q -1.29712,0 -2.075391,0.6485596 -0.769624,0.6399124 -0.769624,2.0148584 0,1.461421 0.812861,2.585591 0.812862,1.115522 1.902442,1.115522 0.873393,0 1.444126,-0.838804 0.570732,-0.847451 0.570732,-2.0408 0,-1.893794 -1.582485,-3.484927 z"
             id="text81"
             style="font-style:italic;font-size:17.71px;font-family:'Times New Roman', Symbola, serif;fill:none;stroke:#ffffff;stroke-width:3;stroke-linecap:round;stroke-linejoin:round;stroke-miterlimit:2"
             aria-label="σ" />
          <path
             d="m 8.2953512,14.493301 q -1.5651903,1.677607 -2.72395,1.677607 -0.7436816,0 -1.3835937,-0.570732 v 0.458316 q 0,0.795566 0.2421289,1.59978 0.2767187,0.890688 0.2767187,1.176054 0,0.397784 -0.2507763,0.657207 -0.2507764,0.259424 -0.6226172,0.259424 -0.3804882,0 -0.6053222,-0.302661 -0.224834,-0.302661 -0.224834,-0.726387 0,-0.311308 0.224834,-1.12417 0.2594238,-0.899335 0.2594238,-1.746787 V 8.0077058 h 1.426831 V 13.13565 q 0,0.778271 0.1297119,1.141465 0.1383594,0.363193 0.4756103,0.596674 0.3458984,0.224834 0.7782715,0.224834 0.7696239,0 1.9975633,-1.05499 V 8.0077058 h 1.4354785 v 6.0099852 q 0,0.760976 0.1556543,1.05499 0.155654,0.285366 0.527495,0.285366 0.588027,0 0.760977,-1.150112 h 0.311308 q -0.164302,1.962973 -1.6603123,1.962973 -0.6485595,0 -1.0809325,-0.432373 -0.4237256,-0.44102 -0.449668,-1.245234 z"
             id="text82"
             style="font-style:italic;font-size:17.71px;font-family:'Times New Roman', Symbola, serif;fill:#388c46"
             aria-label="μ" />
          <path
             d="M 19.076388,14.709488 V 10.394405 H 14.769953 V 9.6853131 h 4.306435 V 5.3875253 h 0.691797 v 4.2977878 h 4.32373 v 0.7090919 h -4.32373 v 4.315083 z"
             id="text83"
             style="font-size:17.71px;font-family:Symbola, 'Times New Roman', serif;fill:#388c46"
             aria-label="+" />
          <path
             d="M 40.958913,8.0077058 V 9.270235 h -3.372509 q 1.106874,0.6312646 1.807319,1.59978 0.700444,0.959868 0.700444,2.040801 0,1.409536 -1.115522,2.334814 -1.106875,0.925278 -2.516411,0.925278 -1.66896,0 -2.879605,-1.305766 -1.210644,-1.314414 -1.210644,-3.052554 0,-1.227939 0.631264,-2.1705122 0.639913,-0.9425732 1.478716,-1.2884716 0.847451,-0.3458984 2.28293,-0.3458984 z M 37.007024,9.270235 h -0.302661 q -1.29712,0 -2.075391,0.6485596 -0.769624,0.6399124 -0.769624,2.0148584 0,1.461421 0.812861,2.585591 0.812862,1.115522 1.902442,1.115522 0.873393,0 1.444126,-0.838804 0.570732,-0.847451 0.570732,-2.0408 0,-1.893794 -1.582485,-3.484927 z"
             id="text84"
             style="font-style:italic;font-size:17.71px;font-family:'Times New Roman', Symbola, serif;fill:#388c46"
             aria-label="σ" />
        </g>
      </g>
      <g
         transform="rotate(0,0,0) translate(83,223)"
         id="g91">
        <g
           class="dcg-svg-label"
           id="g90">
          <path
             d="m 8.2953512,14.493301 q -1.5651903,1.677607 -2.72395,1.677607 -0.7436816,0 -1.3835937,-0.570732 v 0.458316 q 0,0.795566 0.2421289,1.59978 0.2767187,0.890688 0.2767187,1.176054 0,0.397784 -0.2507763,0.657207 -0.2507764,0.259424 -0.6226172,0.259424 -0.3804882,0 -0.6053222,-0.302661 -0.224834,-0.302661 -0.224834,-0.726387 0,-0.311308 0.224834,-1.12417 0.2594238,-0.899335 0.2594238,-1.746787 V 8.0077058 h 1.426831 V 13.13565 q 0,0.778271 0.1297119,1.141465 0.1383594,0.363193 0.4756103,0.596674 0.3458984,0.224834 0.7782715,0.224834 0.7696239,0 1.9975633,-1.05499 V 8.0077058 h 1.4354785 v 6.0099852 q 0,0.760976 0.1556543,1.05499 0.155654,0.285366 0.527495,0.285366 0.588027,0 0.760977,-1.150112 h 0.311308 q -0.164302,1.962973 -1.6603123,1.962973 -0.6485595,0 -1.0809325,-0.432373 -0.4237256,-0.44102 -0.449668,-1.245234 z"
             id="text85"
             style="font-style:italic;font-size:17.71px;font-family:'Times New Roman', Symbola, serif;fill:none;stroke:#ffffff;stroke-width:3;stroke-linecap:round;stroke-linejoin:round;stroke-miterlimit:2"
             aria-label="μ" />
          <path
             d="M 24.091915,10.394405 H 14.769953 V 9.6853131 h 9.321962 z"
             id="text86"
             style="font-size:17.71px;font-family:Symbola, 'Times New Roman', serif;fill:none;stroke:#ffffff;stroke-width:3;stroke-linecap:round;stroke-linejoin:round;stroke-miterlimit:2"
             aria-label="−" />
          <path
             d="M 40.958913,8.0077058 V 9.270235 h -3.372509 q 1.106874,0.6312646 1.807319,1.59978 0.700444,0.959868 0.700444,2.040801 0,1.409536 -1.115522,2.334814 -1.106875,0.925278 -2.516411,0.925278 -1.66896,0 -2.879605,-1.305766 -1.210644,-1.314414 -1.210644,-3.052554 0,-1.227939 0.631264,-2.1705122 0.639913,-0.9425732 1.478716,-1.2884716 0.847451,-0.3458984 2.28293,-0.3458984 z M 37.007024,9.270235 h -0.302661 q -1.29712,0 -2.075391,0.6485596 -0.769624,0.6399124 -0.769624,2.0148584 0,1.461421 0.812861,2.585591 0.812862,1.115522 1.902442,1.115522 0.873393,0 1.444126,-0.838804 0.570732,-0.847451 0.570732,-2.0408 0,-1.893794 -1.582485,-3.484927 z"
             id="text87"
             style="font-style:italic;font-size:17.71px;font-family:'Times New Roman', Symbola, serif;fill:none;stroke:#ffffff;stroke-width:3;stroke-linecap:round;stroke-linejoin:round;stroke-miterlimit:2"
             aria-label="σ" />
          <path
             d="m 8.2953512,14.493301 q -1.5651903,1.677607 -2.72395,1.677607 -0.7436816,0 -1.3835937,-0.570732 v 0.458316 q 0,0.795566 0.2421289,1.59978 0.2767187,0.890688 0.2767187,1.176054 0,0.397784 -0.2507763,0.657207 -0.2507764,0.259424 -0.6226172,0.259424 -0.3804882,0 -0.6053222,-0.302661 -0.224834,-0.302661 -0.224834,-0.726387 0,-0.311308 0.224834,-1.12417 0.2594238,-0.899335 0.2594238,-1.746787 V 8.0077058 h 1.426831 V 13.13565 q 0,0.778271 0.1297119,1.141465 0.1383594,0.363193 0.4756103,0.596674 0.3458984,0.224834 0.7782715,0.224834 0.7696239,0 1.9975633,-1.05499 V 8.0077058 h 1.4354785 v 6.0099852 q 0,0.760976 0.1556543,1.05499 0.155654,0.285366 0.527495,0.285366 0.588027,0 0.760977,-1.150112 h 0.311308 q -0.164302,1.962973 -1.6603123,1.962973 -0.6485595,0 -1.0809325,-0.432373 -0.4237256,-0.44102 -0.449668,-1.245234 z"
             id="text88"
             style="font-style:italic;font-size:17.71px;font-family:'Times New Roman', Symbola, serif;fill:#388c46"
             aria-label="μ" />
          <path
             d="M 24.091915,10.394405 H 14.769953 V 9.6853131 h 9.321962 z"
             id="text89"
             style="font-size:17.71px;font-family:Symbola, 'Times New Roman', serif;fill:#388c46"
             aria-label="−" />
          <path
             d="M 40.958913,8.0077058 V 9.270235 h -3.372509 q 1.106874,0.6312646 1.807319,1.59978 0.700444,0.959868 0.700444,2.040801 0,1.409536 -1.115522,2.334814 -1.106875,0.925278 -2.516411,0.925278 -1.66896,0 -2.879605,-1.305766 -1.210644,-1.314414 -1.210644,-3.052554 0,-1.227939 0.631264,-2.1705122 0.639913,-0.9425732 1.478716,-1.2884716 0.847451,-0.3458984 2.28293,-0.3458984 z M 37.007024,9.270235 h -0.302661 q -1.29712,0 -2.075391,0.6485596 -0.769624,0.6399124 -0.769624,2.0148584 0,1.461421 0.812861,2.585591 0.812862,1.115522 1.902442,1.115522 0.873393,0 1.444126,-0.838804 0.570732,-0.847451 0.570732,-2.0408 0,-1.893794 -1.582485,-3.484927 z"
             id="text90"
             style="font-style:italic;font-size:17.71px;font-family:'Times New Roman', Symbola, serif;fill:#388c46"
             aria-label="σ" />
        </g>
      </g>
    </g>
    <path
       fill="none"
       stroke="#2d70b3"
       class="dcg-svg-point"
       paint-order="fill stroke markers"
       d=" M 227.7799431845857 211.4033790741725 L 227.7799431845857 211.6033790741725 L 227.9799431845857 211.6033790741725 L 227.9799431845857 211.4033790741725"
       stroke-linecap="round"
       stroke-linejoin="round"
       stroke-miterlimit="10"
       stroke-width="8"
       stroke-dasharray=""
       id="path91" />
    <path
       fill="none"
       stroke="#388c46"
       class="dcg-svg-point"
       paint-order="fill stroke markers"
       d=" M 318.82439046855245 211.4033790741725 L 318.82439046855245 211.6033790741725 L 319.0243904685525 211.6033790741725 L 319.0243904685525 211.4033790741725"
       stroke-linecap="round"
       stroke-linejoin="round"
       stroke-miterlimit="10"
       stroke-width="8"
       stroke-dasharray=""
       id="path92" />
    <path
       fill="none"
       stroke="#388c46"
       class="dcg-svg-point"
       paint-order="fill stroke markers"
       d=" M 136.73549590061896 211.4033790741725 L 136.73549590061896 211.6033790741725 L 136.93549590061895 211.6033790741725 L 136.93549590061895 211.4033790741725"
       stroke-linecap="round"
       stroke-linejoin="round"
       stroke-miterlimit="10"
       stroke-width="8"
       stroke-dasharray=""
       id="path93" />
    <g
       id="g93" />
  </g>
</svg>
