<svg version="1.1" xmlns="http://www.w3.org/2000/svg" xmlns:xlink="http://www.w3.org/1999/xlink" width="800" height="800"><defs/><g transform="scale(2,2)"><g id="background-570f716d"><rect fill="white" stroke="none" x="0" y="0" width="400" height="400" class="dcg-svg-background"/></g><g id="graphpaper-570f716d"><g id="grid-570f716d"><g><path fill="none" stroke="rgb(0,0,0)" class="dcg-svg-minor-gridline" paint-order="fill stroke markers" d=" M 4.5 0 L 4.5 400" stroke-opacity="0.2" stroke-miterlimit="10" stroke-dasharray=""/><path fill="none" stroke="rgb(0,0,0)" class="dcg-svg-minor-gridline" paint-order="fill stroke markers" d=" M 35.5 0 L 35.5 400" stroke-opacity="0.2" stroke-miterlimit="10" stroke-dasharray=""/><path fill="none" stroke="rgb(0,0,0)" class="dcg-svg-minor-gridline" paint-order="fill stroke markers" d=" M 67.5 0 L 67.5 400" stroke-opacity="0.2" stroke-miterlimit="10" stroke-dasharray=""/><path fill="none" stroke="rgb(0,0,0)" class="dcg-svg-minor-gridline" paint-order="fill stroke markers" d=" M 99.5 0 L 99.5 400" stroke-opacity="0.2" stroke-miterlimit="10" stroke-dasharray=""/><path fill="none" stroke="rgb(0,0,0)" class="dcg-svg-minor-gridline" paint-order="fill stroke markers" d=" M 130.5 0 L 130.5 400" stroke-opacity="0.2" stroke-miterlimit="10" stroke-dasharray=""/><path fill="none" stroke="rgb(0,0,0)" class="dcg-svg-minor-gridline" paint-order="fill stroke markers" d=" M 162.5 0 L 162.5 400" stroke-opacity="0.2" stroke-miterlimit="10" stroke-dasharray=""/><path fill="none" stroke="rgb(0,0,0)" class="dcg-svg-minor-gridline" paint-order="fill stroke markers" d=" M 225.5 0 L 225.5 400" stroke-opacity="0.2" stroke-miterlimit="10" stroke-dasharray=""/><path fill="none" stroke="rgb(0,0,0)" class="dcg-svg-minor-gridline" paint-order="fill stroke markers" d=" M 257.5 0 L 257.5 400" stroke-opacity="0.2" stroke-miterlimit="10" stroke-dasharray=""/><path fill="none" stroke="rgb(0,0,0)" class="dcg-svg-minor-gridline" paint-order="fill stroke markers" d=" M 289.5 0 L 289.5 400" stroke-opacity="0.2" stroke-miterlimit="10" stroke-dasharray=""/><path fill="none" stroke="rgb(0,0,0)" class="dcg-svg-minor-gridline" paint-order="fill stroke markers" d=" M 320.5 0 L 320.5 400" stroke-opacity="0.2" stroke-miterlimit="10" stroke-dasharray=""/><path fill="none" stroke="rgb(0,0,0)" class="dcg-svg-minor-gridline" paint-order="fill stroke markers" d=" M 352.5 0 L 352.5 400" stroke-opacity="0.2" stroke-miterlimit="10" stroke-dasharray=""/><path fill="none" stroke="rgb(0,0,0)" class="dcg-svg-minor-gridline" paint-order="fill stroke markers" d=" M 384.5 0 L 384.5 400" stroke-opacity="0.2" stroke-miterlimit="10" stroke-dasharray=""/><path fill="none" stroke="rgb(0,0,0)" class="dcg-svg-minor-gridline" paint-order="fill stroke markers" d=" M 0 373.5 L 400 373.5" stroke-opacity="0.2" stroke-miterlimit="10" stroke-dasharray=""/><path fill="none" stroke="rgb(0,0,0)" class="dcg-svg-minor-gridline" paint-order="fill stroke markers" d=" M 0 342.5 L 400 342.5" stroke-opacity="0.2" stroke-miterlimit="10" stroke-dasharray=""/><path fill="none" stroke="rgb(0,0,0)" class="dcg-svg-minor-gridline" paint-order="fill stroke markers" d=" M 0 310.5 L 400 310.5" stroke-opacity="0.2" stroke-miterlimit="10" stroke-dasharray=""/><path fill="none" stroke="rgb(0,0,0)" class="dcg-svg-minor-gridline" paint-order="fill stroke markers" d=" M 0 279.5 L 400 279.5" stroke-opacity="0.2" stroke-miterlimit="10" stroke-dasharray=""/><path fill="none" stroke="rgb(0,0,0)" class="dcg-svg-minor-gridline" paint-order="fill stroke markers" d=" M 0 247.5 L 400 247.5" stroke-opacity="0.2" stroke-miterlimit="10" stroke-dasharray=""/><path fill="none" stroke="rgb(0,0,0)" class="dcg-svg-minor-gridline" paint-order="fill stroke markers" d=" M 0 184.5 L 400 184.5" stroke-opacity="0.2" stroke-miterlimit="10" stroke-dasharray=""/><path fill="none" stroke="rgb(0,0,0)" class="dcg-svg-minor-gridline" paint-order="fill stroke markers" d=" M 0 152.5 L 400 152.5" stroke-opacity="0.2" stroke-miterlimit="10" stroke-dasharray=""/><path fill="none" stroke="rgb(0,0,0)" class="dcg-svg-minor-gridline" paint-order="fill stroke markers" d=" M 0 120.5 L 400 120.5" stroke-opacity="0.2" stroke-miterlimit="10" stroke-dasharray=""/><path fill="none" stroke="rgb(0,0,0)" class="dcg-svg-minor-gridline" paint-order="fill stroke markers" d=" M 0 89.5 L 400 89.5" stroke-opacity="0.2" stroke-miterlimit="10" stroke-dasharray=""/><path fill="none" stroke="rgb(0,0,0)" class="dcg-svg-minor-gridline" paint-order="fill stroke markers" d=" M 0 57.5 L 400 57.5" stroke-opacity="0.2" stroke-miterlimit="10" stroke-dasharray=""/><path fill="none" stroke="rgb(0,0,0)" class="dcg-svg-minor-gridline" paint-order="fill stroke markers" d=" M 0 25.5 L 400 25.5" stroke-opacity="0.2" stroke-miterlimit="10" stroke-dasharray=""/><path fill="none" stroke="rgb(0,0,0)" class="dcg-svg-major-gridline" paint-order="fill stroke markers" d=" M 67.5 0 L 67.5 400" stroke-opacity="0.2500000000000001" stroke-miterlimit="10" stroke-dasharray=""/><path fill="none" stroke="rgb(0,0,0)" class="dcg-svg-major-gridline" paint-order="fill stroke markers" d=" M 320.5 0 L 320.5 400" stroke-opacity="0.2500000000000001" stroke-miterlimit="10" stroke-dasharray=""/><path fill="none" stroke="rgb(0,0,0)" class="dcg-svg-major-gridline" paint-order="fill stroke markers" d=" M 0 342.5 L 400 342.5" stroke-opacity="0.2500000000000001" stroke-miterlimit="10" stroke-dasharray=""/><path fill="none" stroke="rgb(0,0,0)" class="dcg-svg-major-gridline" paint-order="fill stroke markers" d=" M 0 89.5 L 400 89.5" stroke-opacity="0.2500000000000001" stroke-miterlimit="10" stroke-dasharray=""/></g></g><g id="axis-570f716d"><g id="yaxis-570f716d"><title>Y axis</title><g><path fill="none" stroke="rgb(0,0,0)" class="dcg-svg-axis-line" paint-order="fill stroke markers" d=" M 194 0 L 194 400" stroke-opacity="0.9" stroke-miterlimit="10" stroke-width="1.5" stroke-dasharray=""/></g></g><g id="xaxis-570f716d"><title>X axis</title><g><path fill="none" stroke="rgb(0,0,0)" class="dcg-svg-axis-line" paint-order="fill stroke markers" d=" M 0 216 L 400 216" stroke-opacity="0.9" stroke-miterlimit="10" stroke-width="1.5" stroke-dasharray=""/></g></g><g><g class="dcg-svg-axis-value"><text fill="none" stroke="#ffffff" font-family="Arial" font-size="14px" font-style="normal" font-weight="normal" text-decoration="normal" x="185.259496688744" y="231.58792921238097" text-anchor="middle" stroke-miterlimit="2" stroke-width="3" stroke-dasharray="">0</text><text fill="#000000" stroke="none" font-family="Arial" font-size="14px" font-style="normal" font-weight="normal" text-decoration="normal" x="185.259496688744" y="231.58792921238097" text-anchor="middle">0</text></g><g class="dcg-svg-axis-value"><text fill="none" stroke="#ffffff" font-family="Arial" font-size="14px" font-style="normal" font-weight="normal" text-decoration="normal" x="65.26227014013375" y="231.58792921238097" text-anchor="middle" stroke-miterlimit="2" stroke-width="3" stroke-dasharray="">-2</text><text fill="#000000" stroke="none" font-family="Arial" font-size="14px" font-style="normal" font-weight="normal" text-decoration="normal" x="65.26227014013375" y="231.58792921238097" text-anchor="middle">-2</text></g><g class="dcg-svg-axis-value"><text fill="none" stroke="#ffffff" font-family="Arial" font-size="14px" font-style="normal" font-weight="normal" text-decoration="normal" x="320.72339041264723" y="231.58792921238097" text-anchor="middle" stroke-miterlimit="2" stroke-width="3" stroke-dasharray="">2</text><text fill="#000000" stroke="none" font-family="Arial" font-size="14px" font-style="normal" font-weight="normal" text-decoration="normal" x="320.72339041264723" y="231.58792921238097" text-anchor="middle">2</text></g><g class="dcg-svg-axis-value"><text fill="none" stroke="#ffffff" font-family="Arial" font-size="14px" font-style="normal" font-weight="normal" text-decoration="normal" x="182.9261636733021" y="346.15182284091674" text-anchor="middle" stroke-miterlimit="2" stroke-width="3" stroke-dasharray="">-2</text><text fill="#000000" stroke="none" font-family="Arial" font-size="14px" font-style="normal" font-weight="normal" text-decoration="normal" x="182.9261636733021" y="346.15182284091674" text-anchor="middle">-2</text></g><g class="dcg-svg-axis-value"><text fill="none" stroke="#ffffff" font-family="Arial" font-size="14px" font-style="normal" font-weight="normal" text-decoration="normal" x="185.259496688744" y="93.0240355838452" text-anchor="middle" stroke-miterlimit="2" stroke-width="3" stroke-dasharray="">2</text><text fill="#000000" stroke="none" font-family="Arial" font-size="14px" font-style="normal" font-weight="normal" text-decoration="normal" x="185.259496688744" y="93.0240355838452" text-anchor="middle">2</text></g></g></g></g><g id="expressions-570f716d"><g id="sketch-570f716d"><title>Expression 3</title><path fill="#2d70b3" stroke="none" paint-order="stroke fill markers" d="" fill-opacity="0.4"/><g><path fill="none" stroke="#2d70b3" class="dcg-svg-curve" paint-order="fill stroke markers" d=" M 194.15949678411144 400 L 194.15949678411144 389 M 194.15949678411144 382 L 194.15949678411144 371 M 194.15949678411144 364 L 194.15949678411144 353 M 194.15949678411144 346 L 194.15949678411144 335 M 194.15949678411144 328 L 194.15949678411144 317 M 194.15949678411144 310 L 194.15949678411144 299 M 194.15949678411144 292 L 194.15949678411144 281 M 194.15949678411144 274 L 194.15949678411144 263 M 194.15949678411144 256 L 194.15949678411144 245 M 194.15949678411144 238 L 194.15949678411144 227 M 194.15949678411144 220 L 194.15949678411144 209 M 194.15949678411144 202 L 194.15949678411144 191 M 194.15949678411144 184 L 194.15949678411144 173 M 194.15949678411144 166 L 194.15949678411144 155 M 194.15949678411144 148 L 194.15949678411144 137 M 194.15949678411144 130 L 194.15949678411144 119 M 194.15949678411144 112 L 194.15949678411144 101 M 194.15949678411144 94 L 194.15949678411144 83 M 194.15949678411144 76 L 194.15949678411144 65 M 194.15949678411144 58 L 194.15949678411144 46.99999999999999 M 194.15949678411144 39.99999999999999 L 194.15949678411144 28.999999999999986 M 194.15949678411144 21.999999999999982 L 194.15949678411144 10.999999999999977 M 194.15949678411144 3.9999999999999734 L 194.15949678411144 -2.842170943040401e-14" stroke-linecap="round" stroke-linejoin="round" stroke-miterlimit="10" stroke-width="2.5" stroke-opacity="0.5" stroke-dasharray=""/></g></g><g id="sketch-570f716d"><title>mu</title></g><g id="sketch-570f716d"><title>mu plus sigma</title></g><g id="sketch-570f716d"><title>Expression 7</title><path fill="#388c46" stroke="none" paint-order="stroke fill markers" d="" fill-opacity="0.4"/><g><path fill="none" stroke="#388c46" class="dcg-svg-curve" paint-order="fill stroke markers" d=" M 257.44144359837935 400 L 257.44144359837935 389 M 257.44144359837935 382 L 257.44144359837935 371 M 257.44144359837935 364 L 257.44144359837935 353 M 257.44144359837935 346 L 257.44144359837935 335 M 257.44144359837935 328 L 257.44144359837935 317 M 257.44144359837935 310 L 257.44144359837935 299 M 257.44144359837935 292 L 257.44144359837935 281 M 257.44144359837935 274 L 257.44144359837935 263 M 257.44144359837935 256 L 257.44144359837935 245 M 257.44144359837935 238 L 257.44144359837935 227 M 257.44144359837935 220 L 257.44144359837935 209 M 257.44144359837935 202 L 257.44144359837935 191 M 257.44144359837935 184 L 257.44144359837935 173 M 257.44144359837935 166 L 257.44144359837935 155 M 257.44144359837935 148 L 257.44144359837935 137 M 257.44144359837935 130 L 257.44144359837935 119 M 257.44144359837935 112 L 257.44144359837935 101 M 257.44144359837935 94 L 257.44144359837935 83 M 257.44144359837935 76 L 257.44144359837935 65 M 257.44144359837935 58 L 257.44144359837935 46.99999999999999 M 257.44144359837935 39.99999999999999 L 257.44144359837935 28.999999999999986 M 257.44144359837935 21.999999999999982 L 257.44144359837935 10.999999999999977 M 257.44144359837935 3.9999999999999734 L 257.44144359837935 -2.842170943040401e-14" stroke-linecap="round" stroke-linejoin="round" stroke-miterlimit="10" stroke-width="2.5" stroke-opacity="0.5" stroke-dasharray=""/></g></g><g id="sketch-570f716d"><title>mu minus sigma</title></g><g id="sketch-570f716d"><title>Expression 9</title><path fill="#388c46" stroke="none" paint-order="stroke fill markers" d="" fill-opacity="0.4"/><g><path fill="none" stroke="#388c46" class="dcg-svg-curve" paint-order="fill stroke markers" d=" M 130.87754996984353 400 L 130.87754996984353 389 M 130.87754996984353 382 L 130.87754996984353 371 M 130.87754996984353 364 L 130.87754996984353 353 M 130.87754996984353 346 L 130.87754996984353 335 M 130.87754996984353 328 L 130.87754996984353 317 M 130.87754996984353 310 L 130.87754996984353 299 M 130.87754996984353 292 L 130.87754996984353 281 M 130.87754996984353 274 L 130.87754996984353 263 M 130.87754996984353 256 L 130.87754996984353 245 M 130.87754996984353 238 L 130.87754996984353 227 M 130.87754996984353 220 L 130.87754996984353 209 M 130.87754996984353 202 L 130.87754996984353 191 M 130.87754996984353 184 L 130.87754996984353 173 M 130.87754996984353 166 L 130.87754996984353 155 M 130.87754996984353 148 L 130.87754996984353 137 M 130.87754996984353 130 L 130.87754996984353 119 M 130.87754996984353 112 L 130.87754996984353 101 M 130.87754996984353 94 L 130.87754996984353 83 M 130.87754996984353 76 L 130.87754996984353 65 M 130.87754996984353 58 L 130.87754996984353 46.99999999999999 M 130.87754996984353 39.99999999999999 L 130.87754996984353 28.999999999999986 M 130.87754996984353 21.999999999999982 L 130.87754996984353 10.999999999999977 M 130.87754996984353 3.9999999999999734 L 130.87754996984353 -2.842170943040401e-14" stroke-linecap="round" stroke-linejoin="round" stroke-miterlimit="10" stroke-width="2.5" stroke-opacity="0.5" stroke-dasharray=""/></g></g><g id="sketch-570f716d"><title>Expression 12</title><path fill="#6042a6" stroke="none" paint-order="stroke fill markers" d="" fill-opacity="0.4"/><g><path fill="none" stroke="#6042a6" class="dcg-svg-curve" paint-order="fill stroke markers" d=" M 0 215.71178177675793 L 0 215.71178177675793 L 30.56640625 215.47194329880165 L 49.60937499999997 215.07248804399867 L 64.16015625 214.51594096295324 L 76.3671875 213.79637917887908 L 87.20703124999999 212.90028766394943 L 97.07031249999999 211.82567444876634 L 106.25 210.56611345415553 L 115.0390625 209.09749309325704 L 123.53515625 207.41371672672128 L 131.93359375 205.48225214643966 L 140.33203125 203.28196681687842 L 148.92578125 200.75885853162194 L 158.0078125 197.813863726029 L 167.87109374999997 194.33251974692263 L 179.4921875 189.9383948445163 L 197.94921875 182.62797868974752 L 215.33203125 175.84731149749425 L 226.3671875 171.82376569190768 L 235.9375 168.60744535051487 L 244.82421875 165.89326164350757 L 253.41796875 163.5424873932622 L 261.81640625 161.5159474334372 L 270.21484375 159.75711848801777 L 278.80859375 158.22533249217838 L 287.6953125 156.90829793109123 L 297.0703125 155.78552247202063 L 307.12890625 154.84677987327174 L 318.26171875 154.0758343992782 L 330.859375 153.47123883226192 L 345.8984375 153.01983093329693 L 365.234375 152.71516322932837 L 394.04296875 152.5481394572777 L 400 152.5341458309571" stroke-linecap="round" stroke-linejoin="round" stroke-miterlimit="10" stroke-width="2.5" stroke-dasharray=""/></g></g></g><g id="labels-570f716d"><g transform="rotate(0,0,0) translate(205,183)"><g class="dcg-svg-label"><text fill="none" stroke="#FFF" font-family="Times New Roman, Symbola, serif" font-size="17.71px" font-style="italic" font-weight="400" text-decoration="normal" x="2" y="15.928779545898436" text-anchor="start" stroke-linecap="round" stroke-linejoin="round" stroke-miterlimit="2" stroke-width="3" stroke-dasharray="">μ</text><text fill="rgb(45, 112, 179)" stroke="none" font-family="Times New Roman, Symbola, serif" font-size="17.71px" font-style="italic" font-weight="400" text-decoration="normal" x="2" y="15.928779545898436" text-anchor="start">μ</text></g></g><g transform="rotate(0,0,0) translate(268,227)"><g class="dcg-svg-label"><text fill="none" stroke="#FFF" font-family="Times New Roman, Symbola, serif" font-size="17.71px" font-style="italic" font-weight="400" text-decoration="normal" x="2" y="15.928779545898436" text-anchor="start" stroke-linecap="round" stroke-linejoin="round" stroke-miterlimit="2" stroke-width="3" stroke-dasharray="">μ</text><text fill="none" stroke="#FFF" font-family="Symbola, Times New Roman, serif" font-size="17.71px" font-style="normal" font-weight="400" text-decoration="normal" x="14.449996948242188" y="15.928779545898436" text-anchor="start" stroke-linecap="round" stroke-linejoin="round" stroke-miterlimit="2" stroke-width="3" stroke-dasharray="">+</text><text fill="none" stroke="#FFF" font-family="Times New Roman, Symbola, serif" font-size="17.71px" font-style="italic" font-weight="400" text-decoration="normal" x="31.76666259765625" y="15.928779545898436" text-anchor="start" stroke-linecap="round" stroke-linejoin="round" stroke-miterlimit="2" stroke-width="3" stroke-dasharray="">σ</text><text fill="rgb(56, 140, 70)" stroke="none" font-family="Times New Roman, Symbola, serif" font-size="17.71px" font-style="italic" font-weight="400" text-decoration="normal" x="2" y="15.928779545898436" text-anchor="start">μ</text><text fill="rgb(56, 140, 70)" stroke="none" font-family="Symbola, Times New Roman, serif" font-size="17.71px" font-style="normal" font-weight="400" text-decoration="normal" x="14.449996948242188" y="15.928779545898436" text-anchor="start">+</text><text fill="rgb(56, 140, 70)" stroke="none" font-family="Times New Roman, Symbola, serif" font-size="17.71px" font-style="italic" font-weight="400" text-decoration="normal" x="31.76666259765625" y="15.928779545898436" text-anchor="start">σ</text></g></g><g transform="rotate(0,0,0) translate(77,227)"><g class="dcg-svg-label"><text fill="none" stroke="#FFF" font-family="Times New Roman, Symbola, serif" font-size="17.71px" font-style="italic" font-weight="400" text-decoration="normal" x="2" y="15.928779545898436" text-anchor="start" stroke-linecap="round" stroke-linejoin="round" stroke-miterlimit="2" stroke-width="3" stroke-dasharray="">μ</text><text fill="none" stroke="#FFF" font-family="Symbola, Times New Roman, serif" font-size="17.71px" font-style="normal" font-weight="400" text-decoration="normal" x="14.449996948242188" y="15.928779545898436" text-anchor="start" stroke-linecap="round" stroke-linejoin="round" stroke-miterlimit="2" stroke-width="3" stroke-dasharray="">−</text><text fill="none" stroke="#FFF" font-family="Times New Roman, Symbola, serif" font-size="17.71px" font-style="italic" font-weight="400" text-decoration="normal" x="31.76666259765625" y="15.928779545898436" text-anchor="start" stroke-linecap="round" stroke-linejoin="round" stroke-miterlimit="2" stroke-width="3" stroke-dasharray="">σ</text><text fill="rgb(56, 140, 70)" stroke="none" font-family="Times New Roman, Symbola, serif" font-size="17.71px" font-style="italic" font-weight="400" text-decoration="normal" x="2" y="15.928779545898436" text-anchor="start">μ</text><text fill="rgb(56, 140, 70)" stroke="none" font-family="Symbola, Times New Roman, serif" font-size="17.71px" font-style="normal" font-weight="400" text-decoration="normal" x="14.449996948242188" y="15.928779545898436" text-anchor="start">−</text><text fill="rgb(56, 140, 70)" stroke="none" font-family="Times New Roman, Symbola, serif" font-size="17.71px" font-style="italic" font-weight="400" text-decoration="normal" x="31.76666259765625" y="15.928779545898436" text-anchor="start">σ</text></g></g></g><path fill="none" stroke="#2d70b3" class="dcg-svg-point" paint-order="fill stroke markers" d=" M 194.05949678411145 215.67992921238098 L 194.05949678411145 215.87992921238097 L 194.25949678411143 215.87992921238097 L 194.25949678411143 215.67992921238098" stroke-linecap="round" stroke-linejoin="round" stroke-miterlimit="10" stroke-width="8" stroke-dasharray=""/><path fill="none" stroke="#388c46" class="dcg-svg-point" paint-order="fill stroke markers" d=" M 257.3414435983793 215.67992921238098 L 257.3414435983793 215.87992921238097 L 257.5414435983794 215.87992921238097 L 257.5414435983794 215.67992921238098" stroke-linecap="round" stroke-linejoin="round" stroke-miterlimit="10" stroke-width="8" stroke-dasharray=""/><path fill="none" stroke="#388c46" class="dcg-svg-point" paint-order="fill stroke markers" d=" M 130.77754996984353 215.67992921238098 L 130.77754996984353 215.87992921238097 L 130.97754996984352 215.87992921238097 L 130.97754996984352 215.67992921238098" stroke-linecap="round" stroke-linejoin="round" stroke-miterlimit="10" stroke-width="8" stroke-dasharray=""/><g id="labels-570f716d"/></g></svg>