<svg version="1.1" xmlns="http://www.w3.org/2000/svg" xmlns:xlink="http://www.w3.org/1999/xlink" width="800" height="800"><defs/><g transform="scale(2,2)"><g id="background-c82a3d71"><rect fill="white" stroke="none" x="0" y="0" width="400" height="400" class="dcg-svg-background"/></g><g id="graphpaper-c82a3d71"><g id="grid-c82a3d71"><g><path fill="none" stroke="rgb(0,0,0)" class="dcg-svg-minor-gridline" paint-order="fill stroke markers" d=" M 9.5 0 L 9.5 400" stroke-opacity="0.2" stroke-miterlimit="10" stroke-dasharray=""/><path fill="none" stroke="rgb(0,0,0)" class="dcg-svg-minor-gridline" paint-order="fill stroke markers" d=" M 41.5 0 L 41.5 400" stroke-opacity="0.2" stroke-miterlimit="10" stroke-dasharray=""/><path fill="none" stroke="rgb(0,0,0)" class="dcg-svg-minor-gridline" paint-order="fill stroke markers" d=" M 104.5 0 L 104.5 400" stroke-opacity="0.2" stroke-miterlimit="10" stroke-dasharray=""/><path fill="none" stroke="rgb(0,0,0)" class="dcg-svg-minor-gridline" paint-order="fill stroke markers" d=" M 136.5 0 L 136.5 400" stroke-opacity="0.2" stroke-miterlimit="10" stroke-dasharray=""/><path fill="none" stroke="rgb(0,0,0)" class="dcg-svg-minor-gridline" paint-order="fill stroke markers" d=" M 167.5 0 L 167.5 400" stroke-opacity="0.2" stroke-miterlimit="10" stroke-dasharray=""/><path fill="none" stroke="rgb(0,0,0)" class="dcg-svg-minor-gridline" paint-order="fill stroke markers" d=" M 199.5 0 L 199.5 400" stroke-opacity="0.2" stroke-miterlimit="10" stroke-dasharray=""/><path fill="none" stroke="rgb(0,0,0)" class="dcg-svg-minor-gridline" paint-order="fill stroke markers" d=" M 231.5 0 L 231.5 400" stroke-opacity="0.2" stroke-miterlimit="10" stroke-dasharray=""/><path fill="none" stroke="rgb(0,0,0)" class="dcg-svg-minor-gridline" paint-order="fill stroke markers" d=" M 262.5 0 L 262.5 400" stroke-opacity="0.2" stroke-miterlimit="10" stroke-dasharray=""/><path fill="none" stroke="rgb(0,0,0)" class="dcg-svg-minor-gridline" paint-order="fill stroke markers" d=" M 294.5 0 L 294.5 400" stroke-opacity="0.2" stroke-miterlimit="10" stroke-dasharray=""/><path fill="none" stroke="rgb(0,0,0)" class="dcg-svg-minor-gridline" paint-order="fill stroke markers" d=" M 326.5 0 L 326.5 400" stroke-opacity="0.2" stroke-miterlimit="10" stroke-dasharray=""/><path fill="none" stroke="rgb(0,0,0)" class="dcg-svg-minor-gridline" paint-order="fill stroke markers" d=" M 357.5 0 L 357.5 400" stroke-opacity="0.2" stroke-miterlimit="10" stroke-dasharray=""/><path fill="none" stroke="rgb(0,0,0)" class="dcg-svg-minor-gridline" paint-order="fill stroke markers" d=" M 389.5 0 L 389.5 400" stroke-opacity="0.2" stroke-miterlimit="10" stroke-dasharray=""/><path fill="none" stroke="rgb(0,0,0)" class="dcg-svg-minor-gridline" paint-order="fill stroke markers" d=" M 0 393.5 L 400 393.5" stroke-opacity="0.2" stroke-miterlimit="10" stroke-dasharray=""/><path fill="none" stroke="rgb(0,0,0)" class="dcg-svg-minor-gridline" paint-order="fill stroke markers" d=" M 0 361.5 L 400 361.5" stroke-opacity="0.2" stroke-miterlimit="10" stroke-dasharray=""/><path fill="none" stroke="rgb(0,0,0)" class="dcg-svg-minor-gridline" paint-order="fill stroke markers" d=" M 0 329.5 L 400 329.5" stroke-opacity="0.2" stroke-miterlimit="10" stroke-dasharray=""/><path fill="none" stroke="rgb(0,0,0)" class="dcg-svg-minor-gridline" paint-order="fill stroke markers" d=" M 0 298.5 L 400 298.5" stroke-opacity="0.2" stroke-miterlimit="10" stroke-dasharray=""/><path fill="none" stroke="rgb(0,0,0)" class="dcg-svg-minor-gridline" paint-order="fill stroke markers" d=" M 0 266.5 L 400 266.5" stroke-opacity="0.2" stroke-miterlimit="10" stroke-dasharray=""/><path fill="none" stroke="rgb(0,0,0)" class="dcg-svg-minor-gridline" paint-order="fill stroke markers" d=" M 0 203.5 L 400 203.5" stroke-opacity="0.2" stroke-miterlimit="10" stroke-dasharray=""/><path fill="none" stroke="rgb(0,0,0)" class="dcg-svg-minor-gridline" paint-order="fill stroke markers" d=" M 0 171.5 L 400 171.5" stroke-opacity="0.2" stroke-miterlimit="10" stroke-dasharray=""/><path fill="none" stroke="rgb(0,0,0)" class="dcg-svg-minor-gridline" paint-order="fill stroke markers" d=" M 0 140.5 L 400 140.5" stroke-opacity="0.2" stroke-miterlimit="10" stroke-dasharray=""/><path fill="none" stroke="rgb(0,0,0)" class="dcg-svg-minor-gridline" paint-order="fill stroke markers" d=" M 0 108.5 L 400 108.5" stroke-opacity="0.2" stroke-miterlimit="10" stroke-dasharray=""/><path fill="none" stroke="rgb(0,0,0)" class="dcg-svg-minor-gridline" paint-order="fill stroke markers" d=" M 0 76.5 L 400 76.5" stroke-opacity="0.2" stroke-miterlimit="10" stroke-dasharray=""/><path fill="none" stroke="rgb(0,0,0)" class="dcg-svg-minor-gridline" paint-order="fill stroke markers" d=" M 0 45.5 L 400 45.5" stroke-opacity="0.2" stroke-miterlimit="10" stroke-dasharray=""/><path fill="none" stroke="rgb(0,0,0)" class="dcg-svg-minor-gridline" paint-order="fill stroke markers" d=" M 0 13.5 L 400 13.5" stroke-opacity="0.2" stroke-miterlimit="10" stroke-dasharray=""/><path fill="none" stroke="rgb(0,0,0)" class="dcg-svg-major-gridline" paint-order="fill stroke markers" d=" M 199.5 0 L 199.5 400" stroke-opacity="0.2500000000000001" stroke-miterlimit="10" stroke-dasharray=""/><path fill="none" stroke="rgb(0,0,0)" class="dcg-svg-major-gridline" paint-order="fill stroke markers" d=" M 326.5 0 L 326.5 400" stroke-opacity="0.2500000000000001" stroke-miterlimit="10" stroke-dasharray=""/><path fill="none" stroke="rgb(0,0,0)" class="dcg-svg-major-gridline" paint-order="fill stroke markers" d=" M 0 361.5 L 400 361.5" stroke-opacity="0.2500000000000001" stroke-miterlimit="10" stroke-dasharray=""/><path fill="none" stroke="rgb(0,0,0)" class="dcg-svg-major-gridline" paint-order="fill stroke markers" d=" M 0 108.5 L 400 108.5" stroke-opacity="0.2500000000000001" stroke-miterlimit="10" stroke-dasharray=""/></g></g><g id="axis-c82a3d71"><g id="yaxis-c82a3d71"><title>Y axis</title><g><path fill="none" stroke="rgb(0,0,0)" class="dcg-svg-axis-line" paint-order="fill stroke markers" d=" M 73 0 L 73 400" stroke-opacity="0.9" stroke-miterlimit="10" stroke-width="1.5" stroke-dasharray=""/></g></g><g id="xaxis-c82a3d71"><title>X axis</title><g><path fill="none" stroke="rgb(0,0,0)" class="dcg-svg-axis-line" paint-order="fill stroke markers" d=" M 0 235 L 400 235" stroke-opacity="0.9" stroke-miterlimit="10" stroke-width="1.5" stroke-dasharray=""/></g></g><g><g class="dcg-svg-axis-value"><text fill="none" stroke="#ffffff" font-family="Arial" font-size="14px" font-style="normal" font-weight="normal" text-decoration="normal" x="64.01930045349997" y="250.85636927131188" text-anchor="middle" stroke-miterlimit="2" stroke-width="3" stroke-dasharray="">0</text><text fill="#000000" stroke="none" font-family="Arial" font-size="14px" font-style="normal" font-weight="normal" text-decoration="normal" x="64.01930045349997" y="250.85636927131188" text-anchor="middle">0</text></g><g class="dcg-svg-axis-value"><text fill="none" stroke="#ffffff" font-family="Arial" font-size="14px" font-style="normal" font-weight="normal" text-decoration="normal" x="199.4831941774033" y="250.85636927131188" text-anchor="middle" stroke-miterlimit="2" stroke-width="3" stroke-dasharray="">2</text><text fill="#000000" stroke="none" font-family="Arial" font-size="14px" font-style="normal" font-weight="normal" text-decoration="normal" x="199.4831941774033" y="250.85636927131188" text-anchor="middle">2</text></g><g class="dcg-svg-axis-value"><text fill="none" stroke="#ffffff" font-family="Arial" font-size="14px" font-style="normal" font-weight="normal" text-decoration="normal" x="326.0470878059392" y="250.85636927131188" text-anchor="middle" stroke-miterlimit="2" stroke-width="3" stroke-dasharray="">4</text><text fill="#000000" stroke="none" font-family="Arial" font-size="14px" font-style="normal" font-weight="normal" text-decoration="normal" x="326.0470878059392" y="250.85636927131188" text-anchor="middle">4</text></g><g class="dcg-svg-axis-value"><text fill="none" stroke="#ffffff" font-family="Arial" font-size="14px" font-style="normal" font-weight="normal" text-decoration="normal" x="61.68596743805807" y="365.42026289984784" text-anchor="middle" stroke-miterlimit="2" stroke-width="3" stroke-dasharray="">-2</text><text fill="#000000" stroke="none" font-family="Arial" font-size="14px" font-style="normal" font-weight="normal" text-decoration="normal" x="61.68596743805807" y="365.42026289984784" text-anchor="middle">-2</text></g><g class="dcg-svg-axis-value"><text fill="none" stroke="#ffffff" font-family="Arial" font-size="14px" font-style="normal" font-weight="normal" text-decoration="normal" x="64.01930045349997" y="112.29247564277591" text-anchor="middle" stroke-miterlimit="2" stroke-width="3" stroke-dasharray="">2</text><text fill="#000000" stroke="none" font-family="Arial" font-size="14px" font-style="normal" font-weight="normal" text-decoration="normal" x="64.01930045349997" y="112.29247564277591" text-anchor="middle">2</text></g></g></g></g><g id="expressions-c82a3d71"><g id="sketch-c82a3d71"><title>m</title></g><g id="sketch-c82a3d71"><title>Expression 5</title><path fill="#2d70b3" stroke="none" paint-order="stroke fill markers" d="" fill-opacity="0.4"/><g><path fill="none" stroke="#2d70b3" class="dcg-svg-curve" paint-order="fill stroke markers" d=" M 147.59199778970358 400 L 147.59199778970358 389 M 147.59199778970358 382 L 147.59199778970358 371 M 147.59199778970358 364 L 147.59199778970358 353 M 147.59199778970358 346 L 147.59199778970358 335 M 147.59199778970358 328 L 147.59199778970358 317 M 147.59199778970358 310 L 147.59199778970358 299 M 147.59199778970358 292 L 147.59199778970358 281 M 147.59199778970358 274 L 147.59199778970358 263 M 147.59199778970358 256 L 147.59199778970358 245 M 147.59199778970358 238 L 147.59199778970358 227 M 147.59199778970358 220 L 147.59199778970358 209 M 147.59199778970358 202 L 147.59199778970358 191 M 147.59199778970358 184 L 147.59199778970358 173 M 147.59199778970358 166 L 147.59199778970358 155 M 147.59199778970358 148 L 147.59199778970358 137 M 147.59199778970358 130 L 147.59199778970358 119 M 147.59199778970358 112 L 147.59199778970358 101 M 147.59199778970358 94 L 147.59199778970358 83 M 147.59199778970358 76 L 147.59199778970358 65 M 147.59199778970358 58 L 147.59199778970358 47 M 147.59199778970358 40 L 147.59199778970358 29 M 147.59199778970358 22 L 147.59199778970358 11 M 147.59199778970358 4 L 147.59199778970358 0" stroke-linecap="round" stroke-linejoin="round" stroke-miterlimit="10" stroke-width="2.5" stroke-opacity="0.5" stroke-dasharray=""/></g></g><g id="sketch-c82a3d71"><title>Expression 10</title><path fill="#c74440" stroke="none" paint-order="stroke fill markers" d="" fill-opacity="0.4"/><g><path fill="none" stroke="#c74440" class="dcg-svg-curve" paint-order="fill stroke markers" d=" M -1.4210854715202004e-14 231.61983705905854 L -1.4210854715202004e-14 231.61983705905854 L 16.894531249999986 230.76361245745744 L 30.761718749999986 229.80819126360004 L 42.3828125 228.75293106020447 L 52.246093749999986 227.60360767448205 L 60.839843749999986 226.3468745423314 L 68.45703124999999 224.9736391933642 L 75.29296874999999 223.47766122289312 L 81.4453125 221.86722497237477 L 87.109375 220.1173125734031 L 92.3828125 218.21654742387167 L 97.36328125 216.14525274030518 L 102.14843749999999 213.87358378843632 L 106.93359375 211.3057480113221 L 111.81640625 208.37579551926413 L 117.08984375 204.89051923378517 L 124.70703124999999 199.48342362140167 L 131.34765625 194.8818323369808 L 135.15625 192.571511470109 L 138.18359375 191.03899599464597 L 140.8203125 189.9902425084271 L 143.26171875 189.29757951407746 L 145.60546875 188.91016253373687 L 147.8515625 188.8075719147539 L 150.09765625 188.9716216658012 L 152.34375 189.39668978414136 L 154.6875 190.1029769486996 L 157.2265625 191.14216119635535 L 160.05859375 192.58868696024038 L 163.4765625 194.6493043604279 L 167.96875 197.69646848377135 L 183.10546875 208.20996824435284 L 188.0859375 211.21211048745425 L 192.87109375 213.79032305723155 L 197.75390625 216.11549619845283 L 202.73437499999997 218.19061466596906 L 207.91015625 220.0622022508121 L 213.4765625 221.79226016712332 L 219.43359374999997 223.3671843990758 L 225.9765625 224.82267819437752 L 233.20312500000003 226.1582703053259 L 241.30859375 227.38576333861178 L 250.48828124999997 228.50721624292373 L 261.1328125 229.53687295191813 L 273.53515625 230.4666673949118 L 288.28125 231.303067299502 L 306.25 232.0515074568252 L 328.61328125 232.71111740978324 L 357.32421875 233.2844880839293 L 395.5078125 233.7721455866854 L 400 233.81596820246693" stroke-linecap="round" stroke-linejoin="round" stroke-miterlimit="10" stroke-width="2.5" stroke-dasharray=""/></g></g></g><g id="labels-c82a3d71"><g transform="rotate(0,0,0) translate(124,206)"><g class="dcg-svg-label"><text fill="none" stroke="#FFF" font-family="arial, sans-serif" font-size="15.4px" font-style="normal" font-weight="400" text-decoration="normal" x="0" y="13.9888" text-anchor="start" stroke-linecap="round" stroke-linejoin="round" stroke-miterlimit="2" stroke-width="3" stroke-dasharray="">m</text><text fill="rgb(45, 112, 179)" stroke="none" font-family="arial, sans-serif" font-size="15.4px" font-style="normal" font-weight="400" text-decoration="normal" x="0" y="13.9888" text-anchor="start">m</text></g></g></g><path fill="none" stroke="#2d70b3" class="dcg-svg-point" paint-order="fill stroke markers" d=" M 147.4919977897036 234.9483692713119 L 147.4919977897036 235.14836927131188 L 147.69199778970358 235.14836927131188 L 147.69199778970358 234.9483692713119" stroke-linecap="round" stroke-linejoin="round" stroke-miterlimit="10" stroke-width="8" stroke-dasharray=""/><g id="labels-c82a3d71"/></g></svg>