<?xml version="1.0" encoding="UTF-8" standalone="no"?>
<svg
   version="1.1"
   width="800"
   height="800"
   id="svg66"
   sodipodi:docname="rozklad_normalny_dystrybuanta.svg"
   inkscape:version="1.4.2 (ebf0e940d0, 2025-05-08)"
   xmlns:inkscape="http://www.inkscape.org/namespaces/inkscape"
   xmlns:sodipodi="http://sodipodi.sourceforge.net/DTD/sodipodi-0.dtd"
   xmlns="http://www.w3.org/2000/svg"
   xmlns:svg="http://www.w3.org/2000/svg">
  <sodipodi:namedview
     id="namedview66"
     pagecolor="#ffffff"
     bordercolor="#000000"
     borderopacity="0.25"
     inkscape:showpageshadow="2"
     inkscape:pageopacity="0.0"
     inkscape:pagecheckerboard="0"
     inkscape:deskcolor="#d1d1d1"
     inkscape:zoom="5.427068"
     inkscape:cx="223.6014"
     inkscape:cy="444.43888"
     inkscape:window-width="1536"
     inkscape:window-height="836"
     inkscape:window-x="0"
     inkscape:window-y="0"
     inkscape:window-maximized="1"
     inkscape:current-layer="g66" />
  <defs
     id="defs1" />
  <g
     transform="scale(2,2)"
     id="g66">
    <g
       id="background-570f716d">
      <rect
         fill="white"
         stroke="none"
         x="0"
         y="0"
         width="400"
         height="400"
         class="dcg-svg-background"
         id="rect1" />
    </g>
    <g
       id="graphpaper-570f716d">
      <g
         id="grid-570f716d">
        <g
           id="g27">
          <path
             fill="none"
             stroke="rgb(0,0,0)"
             class="dcg-svg-minor-gridline"
             paint-order="fill stroke markers"
             d=" M 4.5 0 L 4.5 400"
             stroke-opacity="0.2"
             stroke-miterlimit="10"
             stroke-dasharray=""
             id="path1" />
          <path
             fill="none"
             stroke="rgb(0,0,0)"
             class="dcg-svg-minor-gridline"
             paint-order="fill stroke markers"
             d=" M 35.5 0 L 35.5 400"
             stroke-opacity="0.2"
             stroke-miterlimit="10"
             stroke-dasharray=""
             id="path2" />
          <path
             fill="none"
             stroke="rgb(0,0,0)"
             class="dcg-svg-minor-gridline"
             paint-order="fill stroke markers"
             d=" M 67.5 0 L 67.5 400"
             stroke-opacity="0.2"
             stroke-miterlimit="10"
             stroke-dasharray=""
             id="path3" />
          <path
             fill="none"
             stroke="rgb(0,0,0)"
             class="dcg-svg-minor-gridline"
             paint-order="fill stroke markers"
             d=" M 99.5 0 L 99.5 400"
             stroke-opacity="0.2"
             stroke-miterlimit="10"
             stroke-dasharray=""
             id="path4" />
          <path
             fill="none"
             stroke="rgb(0,0,0)"
             class="dcg-svg-minor-gridline"
             paint-order="fill stroke markers"
             d=" M 130.5 0 L 130.5 400"
             stroke-opacity="0.2"
             stroke-miterlimit="10"
             stroke-dasharray=""
             id="path5" />
          <path
             fill="none"
             stroke="rgb(0,0,0)"
             class="dcg-svg-minor-gridline"
             paint-order="fill stroke markers"
             d=" M 162.5 0 L 162.5 400"
             stroke-opacity="0.2"
             stroke-miterlimit="10"
             stroke-dasharray=""
             id="path6" />
          <path
             fill="none"
             stroke="rgb(0,0,0)"
             class="dcg-svg-minor-gridline"
             paint-order="fill stroke markers"
             d=" M 225.5 0 L 225.5 400"
             stroke-opacity="0.2"
             stroke-miterlimit="10"
             stroke-dasharray=""
             id="path7" />
          <path
             fill="none"
             stroke="rgb(0,0,0)"
             class="dcg-svg-minor-gridline"
             paint-order="fill stroke markers"
             d=" M 257.5 0 L 257.5 400"
             stroke-opacity="0.2"
             stroke-miterlimit="10"
             stroke-dasharray=""
             id="path8" />
          <path
             fill="none"
             stroke="rgb(0,0,0)"
             class="dcg-svg-minor-gridline"
             paint-order="fill stroke markers"
             d=" M 289.5 0 L 289.5 400"
             stroke-opacity="0.2"
             stroke-miterlimit="10"
             stroke-dasharray=""
             id="path9" />
          <path
             fill="none"
             stroke="rgb(0,0,0)"
             class="dcg-svg-minor-gridline"
             paint-order="fill stroke markers"
             d=" M 320.5 0 L 320.5 400"
             stroke-opacity="0.2"
             stroke-miterlimit="10"
             stroke-dasharray=""
             id="path10" />
          <path
             fill="none"
             stroke="rgb(0,0,0)"
             class="dcg-svg-minor-gridline"
             paint-order="fill stroke markers"
             d=" M 352.5 0 L 352.5 400"
             stroke-opacity="0.2"
             stroke-miterlimit="10"
             stroke-dasharray=""
             id="path11" />
          <path
             fill="none"
             stroke="rgb(0,0,0)"
             class="dcg-svg-minor-gridline"
             paint-order="fill stroke markers"
             d=" M 384.5 0 L 384.5 400"
             stroke-opacity="0.2"
             stroke-miterlimit="10"
             stroke-dasharray=""
             id="path12" />
          <path
             fill="none"
             stroke="rgb(0,0,0)"
             class="dcg-svg-minor-gridline"
             paint-order="fill stroke markers"
             d=" M 0 373.5 L 400 373.5"
             stroke-opacity="0.2"
             stroke-miterlimit="10"
             stroke-dasharray=""
             id="path13" />
          <path
             fill="none"
             stroke="rgb(0,0,0)"
             class="dcg-svg-minor-gridline"
             paint-order="fill stroke markers"
             d=" M 0 342.5 L 400 342.5"
             stroke-opacity="0.2"
             stroke-miterlimit="10"
             stroke-dasharray=""
             id="path14" />
          <path
             fill="none"
             stroke="rgb(0,0,0)"
             class="dcg-svg-minor-gridline"
             paint-order="fill stroke markers"
             d=" M 0 310.5 L 400 310.5"
             stroke-opacity="0.2"
             stroke-miterlimit="10"
             stroke-dasharray=""
             id="path15" />
          <path
             fill="none"
             stroke="rgb(0,0,0)"
             class="dcg-svg-minor-gridline"
             paint-order="fill stroke markers"
             d=" M 0 279.5 L 400 279.5"
             stroke-opacity="0.2"
             stroke-miterlimit="10"
             stroke-dasharray=""
             id="path16" />
          <path
             fill="none"
             stroke="rgb(0,0,0)"
             class="dcg-svg-minor-gridline"
             paint-order="fill stroke markers"
             d=" M 0 247.5 L 400 247.5"
             stroke-opacity="0.2"
             stroke-miterlimit="10"
             stroke-dasharray=""
             id="path17" />
          <path
             fill="none"
             stroke="rgb(0,0,0)"
             class="dcg-svg-minor-gridline"
             paint-order="fill stroke markers"
             d=" M 0 184.5 L 400 184.5"
             stroke-opacity="0.2"
             stroke-miterlimit="10"
             stroke-dasharray=""
             id="path18" />
          <path
             fill="none"
             stroke="rgb(0,0,0)"
             class="dcg-svg-minor-gridline"
             paint-order="fill stroke markers"
             d=" M 0 152.5 L 400 152.5"
             stroke-opacity="0.2"
             stroke-miterlimit="10"
             stroke-dasharray=""
             id="path19" />
          <path
             fill="none"
             stroke="rgb(0,0,0)"
             class="dcg-svg-minor-gridline"
             paint-order="fill stroke markers"
             d=" M 0 120.5 L 400 120.5"
             stroke-opacity="0.2"
             stroke-miterlimit="10"
             stroke-dasharray=""
             id="path20" />
          <path
             fill="none"
             stroke="rgb(0,0,0)"
             class="dcg-svg-minor-gridline"
             paint-order="fill stroke markers"
             d=" M 0 89.5 L 400 89.5"
             stroke-opacity="0.2"
             stroke-miterlimit="10"
             stroke-dasharray=""
             id="path21" />
          <path
             fill="none"
             stroke="rgb(0,0,0)"
             class="dcg-svg-minor-gridline"
             paint-order="fill stroke markers"
             d=" M 0 57.5 L 400 57.5"
             stroke-opacity="0.2"
             stroke-miterlimit="10"
             stroke-dasharray=""
             id="path22" />
          <path
             fill="none"
             stroke="rgb(0,0,0)"
             class="dcg-svg-minor-gridline"
             paint-order="fill stroke markers"
             d=" M 0 25.5 L 400 25.5"
             stroke-opacity="0.2"
             stroke-miterlimit="10"
             stroke-dasharray=""
             id="path23" />
          <path
             fill="none"
             stroke="rgb(0,0,0)"
             class="dcg-svg-major-gridline"
             paint-order="fill stroke markers"
             d=" M 67.5 0 L 67.5 400"
             stroke-opacity="0.2500000000000001"
             stroke-miterlimit="10"
             stroke-dasharray=""
             id="path24" />
          <path
             fill="none"
             stroke="rgb(0,0,0)"
             class="dcg-svg-major-gridline"
             paint-order="fill stroke markers"
             d=" M 320.5 0 L 320.5 400"
             stroke-opacity="0.2500000000000001"
             stroke-miterlimit="10"
             stroke-dasharray=""
             id="path25" />
          <path
             fill="none"
             stroke="rgb(0,0,0)"
             class="dcg-svg-major-gridline"
             paint-order="fill stroke markers"
             d=" M 0 342.5 L 400 342.5"
             stroke-opacity="0.2500000000000001"
             stroke-miterlimit="10"
             stroke-dasharray=""
             id="path26" />
          <path
             fill="none"
             stroke="rgb(0,0,0)"
             class="dcg-svg-major-gridline"
             paint-order="fill stroke markers"
             d=" M 0 89.5 L 400 89.5"
             stroke-opacity="0.2500000000000001"
             stroke-miterlimit="10"
             stroke-dasharray=""
             id="path27" />
        </g>
      </g>
      <g
         id="axis-570f716d">
        <g
           id="yaxis-570f716d">
          <title
             id="title27">Y axis</title>
          <g
             id="g28">
            <path
               fill="none"
               stroke="rgb(0,0,0)"
               class="dcg-svg-axis-line"
               paint-order="fill stroke markers"
               d=" M 194 0 L 194 400"
               stroke-opacity="0.9"
               stroke-miterlimit="10"
               stroke-width="1.5"
               stroke-dasharray=""
               id="path28" />
          </g>
        </g>
        <g
           id="xaxis-570f716d">
          <title
             id="title28">X axis</title>
          <g
             id="g29">
            <path
               fill="none"
               stroke="rgb(0,0,0)"
               class="dcg-svg-axis-line"
               paint-order="fill stroke markers"
               d=" M 0 216 L 400 216"
               stroke-opacity="0.9"
               stroke-miterlimit="10"
               stroke-width="1.5"
               stroke-dasharray=""
               id="path29" />
          </g>
        </g>
        <g
           id="g39">
          <g
             class="dcg-svg-axis-value"
             id="g30">
            <text
               fill="none"
               stroke="#ffffff"
               font-family="Arial"
               font-size="14px"
               font-style="normal"
               font-weight="normal"
               text-decoration="normal"
               x="185.259496688744"
               y="231.58792921238097"
               text-anchor="middle"
               stroke-miterlimit="2"
               stroke-width="3"
               stroke-dasharray=""
               id="text29">0</text>
            <text
               fill="#000000"
               stroke="none"
               font-family="Arial"
               font-size="14px"
               font-style="normal"
               font-weight="normal"
               text-decoration="normal"
               x="185.259496688744"
               y="231.58792921238097"
               text-anchor="middle"
               id="text30">0</text>
          </g>
          <g
             class="dcg-svg-axis-value"
             id="g32">
            <text
               fill="none"
               stroke="#ffffff"
               font-family="Arial"
               font-size="14px"
               font-style="normal"
               font-weight="normal"
               text-decoration="normal"
               x="65.26227014013375"
               y="231.58792921238097"
               text-anchor="middle"
               stroke-miterlimit="2"
               stroke-width="3"
               stroke-dasharray=""
               id="text31">-2</text>
            <text
               fill="#000000"
               stroke="none"
               font-family="Arial"
               font-size="14px"
               font-style="normal"
               font-weight="normal"
               text-decoration="normal"
               x="65.26227014013375"
               y="231.58792921238097"
               text-anchor="middle"
               id="text32">-2</text>
          </g>
          <g
             class="dcg-svg-axis-value"
             id="g34">
            <text
               fill="none"
               stroke="#ffffff"
               font-family="Arial"
               font-size="14px"
               font-style="normal"
               font-weight="normal"
               text-decoration="normal"
               x="320.72339041264723"
               y="231.58792921238097"
               text-anchor="middle"
               stroke-miterlimit="2"
               stroke-width="3"
               stroke-dasharray=""
               id="text33">2</text>
            <text
               fill="#000000"
               stroke="none"
               font-family="Arial"
               font-size="14px"
               font-style="normal"
               font-weight="normal"
               text-decoration="normal"
               x="320.72339041264723"
               y="231.58792921238097"
               text-anchor="middle"
               id="text34">2</text>
          </g>
          <g
             class="dcg-svg-axis-value"
             id="g36">
            <text
               fill="none"
               stroke="#ffffff"
               font-family="Arial"
               font-size="14px"
               font-style="normal"
               font-weight="normal"
               text-decoration="normal"
               x="182.9261636733021"
               y="346.15182284091674"
               text-anchor="middle"
               stroke-miterlimit="2"
               stroke-width="3"
               stroke-dasharray=""
               id="text35">-2</text>
            <text
               fill="#000000"
               stroke="none"
               font-family="Arial"
               font-size="14px"
               font-style="normal"
               font-weight="normal"
               text-decoration="normal"
               x="182.9261636733021"
               y="346.15182284091674"
               text-anchor="middle"
               id="text36">-2</text>
          </g>
          <g
             class="dcg-svg-axis-value"
             id="g38">
            <text
               fill="none"
               stroke="#ffffff"
               font-family="Arial"
               font-size="14px"
               font-style="normal"
               font-weight="normal"
               text-decoration="normal"
               x="185.259496688744"
               y="93.0240355838452"
               text-anchor="middle"
               stroke-miterlimit="2"
               stroke-width="3"
               stroke-dasharray=""
               id="text37">2</text>
            <text
               fill="#000000"
               stroke="none"
               font-family="Arial"
               font-size="14px"
               font-style="normal"
               font-weight="normal"
               text-decoration="normal"
               x="185.259496688744"
               y="93.0240355838452"
               text-anchor="middle"
               id="text38">2</text>
          </g>
        </g>
      </g>
    </g>
    <g
       id="expressions-570f716d">
      <g
         id="sketch-570f716d">
        <title
           id="title39">Expression 3</title>
        <path
           fill="#2d70b3"
           stroke="none"
           paint-order="stroke fill markers"
           d=""
           fill-opacity="0.4"
           id="path39" />
        <g
           id="g40">
          <path
             fill="none"
             stroke="#2d70b3"
             class="dcg-svg-curve"
             paint-order="fill stroke markers"
             d=" M 194.15949678411144 400 L 194.15949678411144 389 M 194.15949678411144 382 L 194.15949678411144 371 M 194.15949678411144 364 L 194.15949678411144 353 M 194.15949678411144 346 L 194.15949678411144 335 M 194.15949678411144 328 L 194.15949678411144 317 M 194.15949678411144 310 L 194.15949678411144 299 M 194.15949678411144 292 L 194.15949678411144 281 M 194.15949678411144 274 L 194.15949678411144 263 M 194.15949678411144 256 L 194.15949678411144 245 M 194.15949678411144 238 L 194.15949678411144 227 M 194.15949678411144 220 L 194.15949678411144 209 M 194.15949678411144 202 L 194.15949678411144 191 M 194.15949678411144 184 L 194.15949678411144 173 M 194.15949678411144 166 L 194.15949678411144 155 M 194.15949678411144 148 L 194.15949678411144 137 M 194.15949678411144 130 L 194.15949678411144 119 M 194.15949678411144 112 L 194.15949678411144 101 M 194.15949678411144 94 L 194.15949678411144 83 M 194.15949678411144 76 L 194.15949678411144 65 M 194.15949678411144 58 L 194.15949678411144 46.99999999999999 M 194.15949678411144 39.99999999999999 L 194.15949678411144 28.999999999999986 M 194.15949678411144 21.999999999999982 L 194.15949678411144 10.999999999999977 M 194.15949678411144 3.9999999999999734 L 194.15949678411144 -2.842170943040401e-14"
             stroke-linecap="round"
             stroke-linejoin="round"
             stroke-miterlimit="10"
             stroke-width="2.5"
             stroke-opacity="0.5"
             stroke-dasharray=""
             id="path40" />
        </g>
      </g>
      <g
         id="g41">
        <title
           id="title40">mu</title>
      </g>
      <g
         id="g42">
        <title
           id="title41">mu plus sigma</title>
      </g>
      <g
         id="g44">
        <title
           id="title42">Expression 7</title>
        <path
           fill="#388c46"
           stroke="none"
           paint-order="stroke fill markers"
           d=""
           fill-opacity="0.4"
           id="path42" />
        <g
           id="g43">
          <path
             fill="none"
             stroke="#388c46"
             class="dcg-svg-curve"
             paint-order="fill stroke markers"
             d=" M 257.44144359837935 400 L 257.44144359837935 389 M 257.44144359837935 382 L 257.44144359837935 371 M 257.44144359837935 364 L 257.44144359837935 353 M 257.44144359837935 346 L 257.44144359837935 335 M 257.44144359837935 328 L 257.44144359837935 317 M 257.44144359837935 310 L 257.44144359837935 299 M 257.44144359837935 292 L 257.44144359837935 281 M 257.44144359837935 274 L 257.44144359837935 263 M 257.44144359837935 256 L 257.44144359837935 245 M 257.44144359837935 238 L 257.44144359837935 227 M 257.44144359837935 220 L 257.44144359837935 209 M 257.44144359837935 202 L 257.44144359837935 191 M 257.44144359837935 184 L 257.44144359837935 173 M 257.44144359837935 166 L 257.44144359837935 155 M 257.44144359837935 148 L 257.44144359837935 137 M 257.44144359837935 130 L 257.44144359837935 119 M 257.44144359837935 112 L 257.44144359837935 101 M 257.44144359837935 94 L 257.44144359837935 83 M 257.44144359837935 76 L 257.44144359837935 65 M 257.44144359837935 58 L 257.44144359837935 46.99999999999999 M 257.44144359837935 39.99999999999999 L 257.44144359837935 28.999999999999986 M 257.44144359837935 21.999999999999982 L 257.44144359837935 10.999999999999977 M 257.44144359837935 3.9999999999999734 L 257.44144359837935 -2.842170943040401e-14"
             stroke-linecap="round"
             stroke-linejoin="round"
             stroke-miterlimit="10"
             stroke-width="2.5"
             stroke-opacity="0.5"
             stroke-dasharray=""
             id="path43" />
        </g>
      </g>
      <g
         id="g45">
        <title
           id="title44">mu minus sigma</title>
      </g>
      <g
         id="g47">
        <title
           id="title45">Expression 9</title>
        <path
           fill="#388c46"
           stroke="none"
           paint-order="stroke fill markers"
           d=""
           fill-opacity="0.4"
           id="path45" />
        <g
           id="g46">
          <path
             fill="none"
             stroke="#388c46"
             class="dcg-svg-curve"
             paint-order="fill stroke markers"
             d=" M 130.87754996984353 400 L 130.87754996984353 389 M 130.87754996984353 382 L 130.87754996984353 371 M 130.87754996984353 364 L 130.87754996984353 353 M 130.87754996984353 346 L 130.87754996984353 335 M 130.87754996984353 328 L 130.87754996984353 317 M 130.87754996984353 310 L 130.87754996984353 299 M 130.87754996984353 292 L 130.87754996984353 281 M 130.87754996984353 274 L 130.87754996984353 263 M 130.87754996984353 256 L 130.87754996984353 245 M 130.87754996984353 238 L 130.87754996984353 227 M 130.87754996984353 220 L 130.87754996984353 209 M 130.87754996984353 202 L 130.87754996984353 191 M 130.87754996984353 184 L 130.87754996984353 173 M 130.87754996984353 166 L 130.87754996984353 155 M 130.87754996984353 148 L 130.87754996984353 137 M 130.87754996984353 130 L 130.87754996984353 119 M 130.87754996984353 112 L 130.87754996984353 101 M 130.87754996984353 94 L 130.87754996984353 83 M 130.87754996984353 76 L 130.87754996984353 65 M 130.87754996984353 58 L 130.87754996984353 46.99999999999999 M 130.87754996984353 39.99999999999999 L 130.87754996984353 28.999999999999986 M 130.87754996984353 21.999999999999982 L 130.87754996984353 10.999999999999977 M 130.87754996984353 3.9999999999999734 L 130.87754996984353 -2.842170943040401e-14"
             stroke-linecap="round"
             stroke-linejoin="round"
             stroke-miterlimit="10"
             stroke-width="2.5"
             stroke-opacity="0.5"
             stroke-dasharray=""
             id="path46" />
        </g>
      </g>
      <g
         id="g49">
        <title
           id="title47">Expression 12</title>
        <path
           fill="#6042a6"
           stroke="none"
           paint-order="stroke fill markers"
           d=""
           fill-opacity="0.4"
           id="path47" />
        <g
           id="g48">
          <path
             fill="none"
             stroke="#6042a6"
             class="dcg-svg-curve"
             paint-order="fill stroke markers"
             d=" M 0 215.71178177675793 L 0 215.71178177675793 L 30.56640625 215.47194329880165 L 49.60937499999997 215.07248804399867 L 64.16015625 214.51594096295324 L 76.3671875 213.79637917887908 L 87.20703124999999 212.90028766394943 L 97.07031249999999 211.82567444876634 L 106.25 210.56611345415553 L 115.0390625 209.09749309325704 L 123.53515625 207.41371672672128 L 131.93359375 205.48225214643966 L 140.33203125 203.28196681687842 L 148.92578125 200.75885853162194 L 158.0078125 197.813863726029 L 167.87109374999997 194.33251974692263 L 179.4921875 189.9383948445163 L 197.94921875 182.62797868974752 L 215.33203125 175.84731149749425 L 226.3671875 171.82376569190768 L 235.9375 168.60744535051487 L 244.82421875 165.89326164350757 L 253.41796875 163.5424873932622 L 261.81640625 161.5159474334372 L 270.21484375 159.75711848801777 L 278.80859375 158.22533249217838 L 287.6953125 156.90829793109123 L 297.0703125 155.78552247202063 L 307.12890625 154.84677987327174 L 318.26171875 154.0758343992782 L 330.859375 153.47123883226192 L 345.8984375 153.01983093329693 L 365.234375 152.71516322932837 L 394.04296875 152.5481394572777 L 400 152.5341458309571"
             stroke-linecap="round"
             stroke-linejoin="round"
             stroke-miterlimit="10"
             stroke-width="2.5"
             stroke-dasharray=""
             id="path48" />
        </g>
      </g>
    </g>
    <g
       id="labels-570f716d">
      <g
         transform="rotate(0,0,0) translate(205,183)"
         id="g51">
        <g
           class="dcg-svg-label"
           id="g50">
          <path
             d="m 8.2953512,14.493301 q -1.5651903,1.677607 -2.72395,1.677607 -0.7436816,0 -1.3835937,-0.570732 v 0.458316 q 0,0.795566 0.2421289,1.59978 0.2767187,0.890688 0.2767187,1.176054 0,0.397784 -0.2507763,0.657207 -0.2507764,0.259424 -0.6226172,0.259424 -0.3804882,0 -0.6053222,-0.302661 -0.224834,-0.302661 -0.224834,-0.726387 0,-0.311308 0.224834,-1.12417 0.2594238,-0.899335 0.2594238,-1.746787 V 8.0077058 h 1.426831 V 13.13565 q 0,0.778271 0.1297119,1.141465 0.1383594,0.363193 0.4756103,0.596674 0.3458984,0.224834 0.7782715,0.224834 0.7696239,0 1.9975633,-1.05499 V 8.0077058 h 1.4354785 v 6.0099852 q 0,0.760976 0.1556543,1.05499 0.155654,0.285366 0.527495,0.285366 0.588027,0 0.760977,-1.150112 h 0.311308 q -0.164302,1.962973 -1.6603123,1.962973 -0.6485595,0 -1.0809325,-0.432373 -0.4237256,-0.44102 -0.449668,-1.245234 z"
             id="text49"
             style="font-style:italic;font-size:17.71px;font-family:'Times New Roman', Symbola, serif;fill:none;stroke:#ffffff;stroke-width:3;stroke-linecap:round;stroke-linejoin:round;stroke-miterlimit:2"
             aria-label="μ" />
          <path
             d="m 8.2953512,14.493301 q -1.5651903,1.677607 -2.72395,1.677607 -0.7436816,0 -1.3835937,-0.570732 v 0.458316 q 0,0.795566 0.2421289,1.59978 0.2767187,0.890688 0.2767187,1.176054 0,0.397784 -0.2507763,0.657207 -0.2507764,0.259424 -0.6226172,0.259424 -0.3804882,0 -0.6053222,-0.302661 -0.224834,-0.302661 -0.224834,-0.726387 0,-0.311308 0.224834,-1.12417 0.2594238,-0.899335 0.2594238,-1.746787 V 8.0077058 h 1.426831 V 13.13565 q 0,0.778271 0.1297119,1.141465 0.1383594,0.363193 0.4756103,0.596674 0.3458984,0.224834 0.7782715,0.224834 0.7696239,0 1.9975633,-1.05499 V 8.0077058 h 1.4354785 v 6.0099852 q 0,0.760976 0.1556543,1.05499 0.155654,0.285366 0.527495,0.285366 0.588027,0 0.760977,-1.150112 h 0.311308 q -0.164302,1.962973 -1.6603123,1.962973 -0.6485595,0 -1.0809325,-0.432373 -0.4237256,-0.44102 -0.449668,-1.245234 z"
             id="text50"
             style="font-style:italic;font-size:17.71px;font-family:'Times New Roman', Symbola, serif;fill:#2d70b3"
             aria-label="μ" />
        </g>
      </g>
      <g
         transform="rotate(0,0,0) translate(268,227)"
         id="g57">
        <g
           class="dcg-svg-label"
           id="g56">
          <path
             d="m 8.2953512,14.493301 q -1.5651903,1.677607 -2.72395,1.677607 -0.7436816,0 -1.3835937,-0.570732 v 0.458316 q 0,0.795566 0.2421289,1.59978 0.2767187,0.890688 0.2767187,1.176054 0,0.397784 -0.2507763,0.657207 -0.2507764,0.259424 -0.6226172,0.259424 -0.3804882,0 -0.6053222,-0.302661 -0.224834,-0.302661 -0.224834,-0.726387 0,-0.311308 0.224834,-1.12417 0.2594238,-0.899335 0.2594238,-1.746787 V 8.0077058 h 1.426831 V 13.13565 q 0,0.778271 0.1297119,1.141465 0.1383594,0.363193 0.4756103,0.596674 0.3458984,0.224834 0.7782715,0.224834 0.7696239,0 1.9975633,-1.05499 V 8.0077058 h 1.4354785 v 6.0099852 q 0,0.760976 0.1556543,1.05499 0.155654,0.285366 0.527495,0.285366 0.588027,0 0.760977,-1.150112 h 0.311308 q -0.164302,1.962973 -1.6603123,1.962973 -0.6485595,0 -1.0809325,-0.432373 -0.4237256,-0.44102 -0.449668,-1.245234 z"
             id="text51"
             style="font-style:italic;font-size:17.71px;font-family:'Times New Roman', Symbola, serif;fill:none;stroke:#ffffff;stroke-width:3;stroke-linecap:round;stroke-linejoin:round;stroke-miterlimit:2"
             aria-label="μ" />
          <path
             d="M 19.076388,14.709488 V 10.394405 H 14.769953 V 9.6853131 h 4.306435 V 5.3875253 h 0.691797 v 4.2977878 h 4.32373 v 0.7090919 h -4.32373 v 4.315083 z"
             id="text52"
             style="font-size:17.71px;font-family:Symbola, 'Times New Roman', serif;fill:none;stroke:#ffffff;stroke-width:3;stroke-linecap:round;stroke-linejoin:round;stroke-miterlimit:2"
             aria-label="+" />
          <path
             d="M 40.958913,8.0077058 V 9.270235 h -3.372509 q 1.106874,0.6312646 1.807319,1.59978 0.700444,0.959868 0.700444,2.040801 0,1.409536 -1.115522,2.334814 -1.106875,0.925278 -2.516411,0.925278 -1.66896,0 -2.879605,-1.305766 -1.210644,-1.314414 -1.210644,-3.052554 0,-1.227939 0.631264,-2.1705122 0.639913,-0.9425732 1.478716,-1.2884716 0.847451,-0.3458984 2.28293,-0.3458984 z M 37.007024,9.270235 h -0.302661 q -1.29712,0 -2.075391,0.6485596 -0.769624,0.6399124 -0.769624,2.0148584 0,1.461421 0.812861,2.585591 0.812862,1.115522 1.902442,1.115522 0.873393,0 1.444126,-0.838804 0.570732,-0.847451 0.570732,-2.0408 0,-1.893794 -1.582485,-3.484927 z"
             id="text53"
             style="font-style:italic;font-size:17.71px;font-family:'Times New Roman', Symbola, serif;fill:none;stroke:#ffffff;stroke-width:3;stroke-linecap:round;stroke-linejoin:round;stroke-miterlimit:2"
             aria-label="σ" />
          <path
             d="m 8.2953512,14.493301 q -1.5651903,1.677607 -2.72395,1.677607 -0.7436816,0 -1.3835937,-0.570732 v 0.458316 q 0,0.795566 0.2421289,1.59978 0.2767187,0.890688 0.2767187,1.176054 0,0.397784 -0.2507763,0.657207 -0.2507764,0.259424 -0.6226172,0.259424 -0.3804882,0 -0.6053222,-0.302661 -0.224834,-0.302661 -0.224834,-0.726387 0,-0.311308 0.224834,-1.12417 0.2594238,-0.899335 0.2594238,-1.746787 V 8.0077058 h 1.426831 V 13.13565 q 0,0.778271 0.1297119,1.141465 0.1383594,0.363193 0.4756103,0.596674 0.3458984,0.224834 0.7782715,0.224834 0.7696239,0 1.9975633,-1.05499 V 8.0077058 h 1.4354785 v 6.0099852 q 0,0.760976 0.1556543,1.05499 0.155654,0.285366 0.527495,0.285366 0.588027,0 0.760977,-1.150112 h 0.311308 q -0.164302,1.962973 -1.6603123,1.962973 -0.6485595,0 -1.0809325,-0.432373 -0.4237256,-0.44102 -0.449668,-1.245234 z"
             id="text54"
             style="font-style:italic;font-size:17.71px;font-family:'Times New Roman', Symbola, serif;fill:#388c46"
             aria-label="μ" />
          <path
             d="M 19.076388,14.709488 V 10.394405 H 14.769953 V 9.6853131 h 4.306435 V 5.3875253 h 0.691797 v 4.2977878 h 4.32373 v 0.7090919 h -4.32373 v 4.315083 z"
             id="text55"
             style="font-size:17.71px;font-family:Symbola, 'Times New Roman', serif;fill:#388c46"
             aria-label="+" />
          <path
             d="M 40.958913,8.0077058 V 9.270235 h -3.372509 q 1.106874,0.6312646 1.807319,1.59978 0.700444,0.959868 0.700444,2.040801 0,1.409536 -1.115522,2.334814 -1.106875,0.925278 -2.516411,0.925278 -1.66896,0 -2.879605,-1.305766 -1.210644,-1.314414 -1.210644,-3.052554 0,-1.227939 0.631264,-2.1705122 0.639913,-0.9425732 1.478716,-1.2884716 0.847451,-0.3458984 2.28293,-0.3458984 z M 37.007024,9.270235 h -0.302661 q -1.29712,0 -2.075391,0.6485596 -0.769624,0.6399124 -0.769624,2.0148584 0,1.461421 0.812861,2.585591 0.812862,1.115522 1.902442,1.115522 0.873393,0 1.444126,-0.838804 0.570732,-0.847451 0.570732,-2.0408 0,-1.893794 -1.582485,-3.484927 z"
             id="text56"
             style="font-style:italic;font-size:17.71px;font-family:'Times New Roman', Symbola, serif;fill:#388c46"
             aria-label="σ" />
        </g>
      </g>
      <g
         transform="rotate(0,0,0) translate(77,227)"
         id="g63">
        <g
           class="dcg-svg-label"
           id="g62">
          <path
             d="m 8.2953512,14.493301 q -1.5651903,1.677607 -2.72395,1.677607 -0.7436816,0 -1.3835937,-0.570732 v 0.458316 q 0,0.795566 0.2421289,1.59978 0.2767187,0.890688 0.2767187,1.176054 0,0.397784 -0.2507763,0.657207 -0.2507764,0.259424 -0.6226172,0.259424 -0.3804882,0 -0.6053222,-0.302661 -0.224834,-0.302661 -0.224834,-0.726387 0,-0.311308 0.224834,-1.12417 0.2594238,-0.899335 0.2594238,-1.746787 V 8.0077058 h 1.426831 V 13.13565 q 0,0.778271 0.1297119,1.141465 0.1383594,0.363193 0.4756103,0.596674 0.3458984,0.224834 0.7782715,0.224834 0.7696239,0 1.9975633,-1.05499 V 8.0077058 h 1.4354785 v 6.0099852 q 0,0.760976 0.1556543,1.05499 0.155654,0.285366 0.527495,0.285366 0.588027,0 0.760977,-1.150112 h 0.311308 q -0.164302,1.962973 -1.6603123,1.962973 -0.6485595,0 -1.0809325,-0.432373 -0.4237256,-0.44102 -0.449668,-1.245234 z"
             id="text57"
             style="font-style:italic;font-size:17.71px;font-family:'Times New Roman', Symbola, serif;fill:none;stroke:#ffffff;stroke-width:3;stroke-linecap:round;stroke-linejoin:round;stroke-miterlimit:2"
             aria-label="μ" />
          <path
             d="M 24.091915,10.394405 H 14.769953 V 9.6853131 h 9.321962 z"
             id="text58"
             style="font-size:17.71px;font-family:Symbola, 'Times New Roman', serif;fill:none;stroke:#ffffff;stroke-width:3;stroke-linecap:round;stroke-linejoin:round;stroke-miterlimit:2"
             aria-label="−" />
          <path
             d="M 40.958913,8.0077058 V 9.270235 h -3.372509 q 1.106874,0.6312646 1.807319,1.59978 0.700444,0.959868 0.700444,2.040801 0,1.409536 -1.115522,2.334814 -1.106875,0.925278 -2.516411,0.925278 -1.66896,0 -2.879605,-1.305766 -1.210644,-1.314414 -1.210644,-3.052554 0,-1.227939 0.631264,-2.1705122 0.639913,-0.9425732 1.478716,-1.2884716 0.847451,-0.3458984 2.28293,-0.3458984 z M 37.007024,9.270235 h -0.302661 q -1.29712,0 -2.075391,0.6485596 -0.769624,0.6399124 -0.769624,2.0148584 0,1.461421 0.812861,2.585591 0.812862,1.115522 1.902442,1.115522 0.873393,0 1.444126,-0.838804 0.570732,-0.847451 0.570732,-2.0408 0,-1.893794 -1.582485,-3.484927 z"
             id="text59"
             style="font-style:italic;font-size:17.71px;font-family:'Times New Roman', Symbola, serif;fill:none;stroke:#ffffff;stroke-width:3;stroke-linecap:round;stroke-linejoin:round;stroke-miterlimit:2"
             aria-label="σ" />
          <path
             d="m 8.2953512,14.493301 q -1.5651903,1.677607 -2.72395,1.677607 -0.7436816,0 -1.3835937,-0.570732 v 0.458316 q 0,0.795566 0.2421289,1.59978 0.2767187,0.890688 0.2767187,1.176054 0,0.397784 -0.2507763,0.657207 -0.2507764,0.259424 -0.6226172,0.259424 -0.3804882,0 -0.6053222,-0.302661 -0.224834,-0.302661 -0.224834,-0.726387 0,-0.311308 0.224834,-1.12417 0.2594238,-0.899335 0.2594238,-1.746787 V 8.0077058 h 1.426831 V 13.13565 q 0,0.778271 0.1297119,1.141465 0.1383594,0.363193 0.4756103,0.596674 0.3458984,0.224834 0.7782715,0.224834 0.7696239,0 1.9975633,-1.05499 V 8.0077058 h 1.4354785 v 6.0099852 q 0,0.760976 0.1556543,1.05499 0.155654,0.285366 0.527495,0.285366 0.588027,0 0.760977,-1.150112 h 0.311308 q -0.164302,1.962973 -1.6603123,1.962973 -0.6485595,0 -1.0809325,-0.432373 -0.4237256,-0.44102 -0.449668,-1.245234 z"
             id="text60"
             style="font-style:italic;font-size:17.71px;font-family:'Times New Roman', Symbola, serif;fill:#388c46"
             aria-label="μ" />
          <path
             d="M 24.091915,10.394405 H 14.769953 V 9.6853131 h 9.321962 z"
             id="text61"
             style="font-size:17.71px;font-family:Symbola, 'Times New Roman', serif;fill:#388c46"
             aria-label="−" />
          <path
             d="M 40.958913,8.0077058 V 9.270235 h -3.372509 q 1.106874,0.6312646 1.807319,1.59978 0.700444,0.959868 0.700444,2.040801 0,1.409536 -1.115522,2.334814 -1.106875,0.925278 -2.516411,0.925278 -1.66896,0 -2.879605,-1.305766 -1.210644,-1.314414 -1.210644,-3.052554 0,-1.227939 0.631264,-2.1705122 0.639913,-0.9425732 1.478716,-1.2884716 0.847451,-0.3458984 2.28293,-0.3458984 z M 37.007024,9.270235 h -0.302661 q -1.29712,0 -2.075391,0.6485596 -0.769624,0.6399124 -0.769624,2.0148584 0,1.461421 0.812861,2.585591 0.812862,1.115522 1.902442,1.115522 0.873393,0 1.444126,-0.838804 0.570732,-0.847451 0.570732,-2.0408 0,-1.893794 -1.582485,-3.484927 z"
             id="text62"
             style="font-style:italic;font-size:17.71px;font-family:'Times New Roman', Symbola, serif;fill:#388c46"
             aria-label="σ" />
        </g>
      </g>
    </g>
    <path
       fill="none"
       stroke="#2d70b3"
       class="dcg-svg-point"
       paint-order="fill stroke markers"
       d=" M 194.05949678411145 215.67992921238098 L 194.05949678411145 215.87992921238097 L 194.25949678411143 215.87992921238097 L 194.25949678411143 215.67992921238098"
       stroke-linecap="round"
       stroke-linejoin="round"
       stroke-miterlimit="10"
       stroke-width="8"
       stroke-dasharray=""
       id="path63" />
    <path
       fill="none"
       stroke="#388c46"
       class="dcg-svg-point"
       paint-order="fill stroke markers"
       d=" M 257.3414435983793 215.67992921238098 L 257.3414435983793 215.87992921238097 L 257.5414435983794 215.87992921238097 L 257.5414435983794 215.67992921238098"
       stroke-linecap="round"
       stroke-linejoin="round"
       stroke-miterlimit="10"
       stroke-width="8"
       stroke-dasharray=""
       id="path64" />
    <path
       fill="none"
       stroke="#388c46"
       class="dcg-svg-point"
       paint-order="fill stroke markers"
       d=" M 130.77754996984353 215.67992921238098 L 130.77754996984353 215.87992921238097 L 130.97754996984352 215.87992921238097 L 130.97754996984352 215.67992921238098"
       stroke-linecap="round"
       stroke-linejoin="round"
       stroke-miterlimit="10"
       stroke-width="8"
       stroke-dasharray=""
       id="path65" />
    <g
       id="g65" />
  </g>
</svg>
